<svg width="24" height="24" viewBox="0 0 24 24" fill="none" xmlns="http://www.w3.org/2000/svg">
<path fill-rule="evenodd" clip-rule="evenodd" d="M11.5277 1.15431C11.8055 0.948563 12.1945 0.948563 12.4723 1.15431L21.703 7.99152C21.8904 8.13031 22 8.34371 22 8.56977V19.314C22 20.0263 21.7028 20.7095 21.1739 21.2133C20.6449 21.717 19.9275 22 19.1795 22H15.0769C14.6521 22 14.3077 21.672 14.3077 21.2674V12.2326H9.69231V21.2674C9.69231 21.672 9.34791 22 8.92308 22H4.82051C4.07247 22 3.35506 21.717 2.82611 21.2133C2.29716 20.7095 2 20.0263 2 19.314V8.56977C2 8.34371 2.10959 8.13031 2.29697 7.99152L11.5277 1.15431ZM3.53846 8.92805V19.314C3.53846 19.6378 3.67353 19.9483 3.91397 20.1773C4.1544 20.4062 4.48049 20.5349 4.82051 20.5349H8.15385V11.5C8.15385 11.0954 8.49824 10.7674 8.92308 10.7674H15.0769C15.5018 10.7674 15.8462 11.0954 15.8462 11.5V20.5349H19.1795C19.5195 20.5349 19.8456 20.4062 20.086 20.1773C20.3265 19.9483 20.4615 19.6378 20.4615 19.314V8.92805L12 2.66061L3.53846 8.92805Z" fill="#767676"/>
</svg>
