<svg width="21" height="22" viewBox="0 0 21 22" fill="none" xmlns="http://www.w3.org/2000/svg">
<path fill-rule="evenodd" clip-rule="evenodd" d="M10.0277 0.654312C10.3055 0.448563 10.6945 0.448563 10.9723 0.654312L20.203 7.49152C20.3904 7.63031 20.5 7.84371 20.5 8.06977V18.814C20.5 19.5263 20.2028 20.2095 19.6739 20.7133C19.1449 21.217 18.4275 21.5 17.6795 21.5H13.5769C13.1521 21.5 12.8077 21.172 12.8077 20.7674V11.7326H8.19231V20.7674C8.19231 21.172 7.84791 21.5 7.42308 21.5H3.32051C2.57247 21.5 1.85506 21.217 1.32611 20.7133C0.79716 20.2095 0.5 19.5263 0.5 18.814V8.06977C0.5 7.84371 0.609594 7.63031 0.796969 7.49152L10.0277 0.654312ZM2.03846 8.42805V18.814C2.03846 19.1378 2.17353 19.4483 2.41397 19.6773C2.6544 19.9062 2.98049 20.0349 3.32051 20.0349H6.65385V11C6.65385 10.5954 6.99824 10.2674 7.42308 10.2674H13.5769C14.0018 10.2674 14.3462 10.5954 14.3462 11V20.0349H17.6795C18.0195 20.0349 18.3456 19.9062 18.586 19.6773C18.8265 19.4483 18.9615 19.1378 18.9615 18.814V8.42805L10.5 2.16061L2.03846 8.42805Z" fill="#767676"/>
</svg>
