<svg width="19" height="20" viewBox="0 0 19 20" fill="none" xmlns="http://www.w3.org/2000/svg">
<path fill-rule="evenodd" clip-rule="evenodd" d="M1.93099 13.7025C2.84724 12.7862 4.08994 12.2715 5.38571 12.2715H13.6143C14.9101 12.2715 16.1528 12.7862 17.069 13.7025C17.9853 14.6187 18.5 15.8614 18.5 17.1572V19.2143C18.5 19.6404 18.1546 19.9858 17.7286 19.9858H1.27143C0.84538 19.9858 0.5 19.6404 0.5 19.2143V17.1572C0.5 15.8614 1.01474 14.6187 1.93099 13.7025ZM5.38571 13.8143C4.49913 13.8143 3.64886 14.1665 3.02196 14.7934C2.39505 15.4204 2.04286 16.2706 2.04286 17.1572V18.4429H16.9571V17.1572C16.9571 16.2706 16.6049 15.4204 15.978 14.7934C15.3511 14.1665 14.5009 13.8143 13.6143 13.8143H5.38571Z" fill="#767676"/>
<path fill-rule="evenodd" clip-rule="evenodd" d="M9.49997 2.04286C7.65376 2.04286 6.15712 3.53951 6.15712 5.38571C6.15712 7.23192 7.65376 8.72857 9.49997 8.72857C11.3462 8.72857 12.8428 7.23192 12.8428 5.38571C12.8428 3.53951 11.3462 2.04286 9.49997 2.04286ZM4.61426 5.38571C4.61426 2.68741 6.80167 0.5 9.49997 0.5C12.1983 0.5 14.3857 2.68741 14.3857 5.38571C14.3857 8.08402 12.1983 10.2714 9.49997 10.2714C6.80167 10.2714 4.61426 8.08402 4.61426 5.38571Z" fill="#767676"/>
</svg>
