<svg width="18" height="18" viewBox="0 0 18 18" fill="none" xmlns="http://www.w3.org/2000/svg">
<path fill-rule="evenodd" clip-rule="evenodd" d="M11.8 6.9C11.8 9.6062 9.6062 11.8 6.9 11.8C4.1938 11.8 2 9.6062 2 6.9C2 4.1938 4.1938 2 6.9 2C9.6062 2 11.8 4.1938 11.8 6.9ZM10.8642 11.9248C9.77406 12.786 8.39706 13.3 6.9 13.3C3.36538 13.3 0.5 10.4346 0.5 6.9C0.5 3.36538 3.36538 0.5 6.9 0.5C10.4346 0.5 13.3 3.36538 13.3 6.9C13.3 8.39706 12.786 9.77407 11.9248 10.8642L17.3538 16.2931C17.6467 16.586 17.6467 17.0609 17.3538 17.3538C17.0609 17.6467 16.586 17.6467 16.2931 17.3538L10.8642 11.9248Z" fill="#767676"/>
</svg>
