<svg width="24" height="24" viewBox="0 0 24 24" fill="none" xmlns="http://www.w3.org/2000/svg">
<path fill-rule="evenodd" clip-rule="evenodd" d="M14.3 9.4C14.3 12.1062 12.1062 14.3 9.4 14.3C6.6938 14.3 4.5 12.1062 4.5 9.4C4.5 6.6938 6.6938 4.5 9.4 4.5C12.1062 4.5 14.3 6.6938 14.3 9.4ZM13.3642 14.4248C12.2741 15.286 10.8971 15.8 9.4 15.8C5.86538 15.8 3 12.9346 3 9.4C3 5.86538 5.86538 3 9.4 3C12.9346 3 15.8 5.86538 15.8 9.4C15.8 10.8971 15.286 12.2741 14.4248 13.3642L19.8538 18.7931C20.1467 19.086 20.1467 19.5609 19.8538 19.8538C19.5609 20.1467 19.086 20.1467 18.7931 19.8538L13.3642 14.4248Z" fill="#767676"/>
</svg>
