<svg width="24" height="25" viewBox="0 0 24 25" fill="none" xmlns="http://www.w3.org/2000/svg">
<path d="M3.87778 5.03833H20.1222L21.9821 19.1733C22.1442 20.4057 21.185 21.4994 19.942 21.4994H4.05796C2.81496 21.4994 1.85576 20.4057 2.01792 19.1733L3.87778 5.03833Z" fill="#CDC3B9"/>
<path d="M2.74048 4.5678C2.74048 3.69128 3.45104 2.98071 4.32757 2.98071H19.672C20.5486 2.98071 21.2591 3.69128 21.2591 4.5678C21.2591 5.44433 20.5486 6.15489 19.672 6.15489H4.32757C3.45104 6.15489 2.74048 5.44433 2.74048 4.5678Z" fill="#D5CDC4"/>
<path d="M12.827 14.2149C12.6895 12.247 13.259 9.91856 15.2648 9.52044C15.1433 9.41579 15.0124 9.31849 14.8712 9.22988C12.8207 7.9434 10.0713 9.32527 8.64835 11.5932C7.33072 13.6934 7.18353 16.5127 8.83432 17.934C10.8402 17.5358 12.9645 16.1828 12.827 14.2149Z" fill="#AFA498"/>
<path d="M15.2648 9.52045C13.2589 9.91857 11.912 11.7593 12.0495 13.7272C12.1871 15.6951 10.8401 17.5358 8.8343 17.934C8.9558 18.0386 9.0867 18.1359 9.22793 18.2245C11.2784 19.511 14.0278 18.1291 15.4508 15.8611C16.7684 13.761 16.9156 10.9417 15.2648 9.52045Z" fill="#888077"/>
</svg>
