<svg width="24" height="25" viewBox="0 0 24 25" fill="none" xmlns="http://www.w3.org/2000/svg">
<path d="M3.87778 5.03833H20.1222L21.9821 19.1733C22.1442 20.4057 21.185 21.4994 19.942 21.4994H4.05796C2.81496 21.4994 1.85576 20.4057 2.01792 19.1733L3.87778 5.03833Z" fill="#D9975A"/>
<path d="M2.74048 4.5678C2.74048 3.69128 3.45104 2.98071 4.32757 2.98071H19.672C20.5486 2.98071 21.2591 3.69128 21.2591 4.5678C21.2591 5.44433 20.5486 6.15489 19.672 6.15489H4.32757C3.45104 6.15489 2.74048 5.44433 2.74048 4.5678Z" fill="#E1AC7B"/>
<path d="M12.8267 14.2149C12.6892 12.247 13.2587 9.91856 15.2646 9.52044C15.1431 9.41579 15.0122 9.31849 14.8709 9.22988C12.8205 7.9434 10.071 9.32527 8.64811 11.5932C7.33048 13.6934 7.18328 16.5127 8.83408 17.934C10.8399 17.5358 12.9642 16.1828 12.8267 14.2149Z" fill="#71482A"/>
<path d="M15.2646 9.52045C13.2587 9.91857 11.9118 11.7593 12.0493 13.7272C12.1868 15.6951 10.8399 17.5358 8.83406 17.934C8.95556 18.0386 9.08645 18.1359 9.22769 18.2245C11.2782 19.511 14.0276 18.1291 15.4505 15.8611C16.7681 13.761 16.9153 10.9417 15.2646 9.52045Z" fill="#50331E"/>
</svg>
