<svg width="24" height="25" viewBox="0 0 24 25" fill="none" xmlns="http://www.w3.org/2000/svg">
<path d="M20 3.77593C20.0001 3.57421 19.9628 3.37446 19.8903 3.18809C19.8178 3.00171 19.7115 2.83237 19.5775 2.68973C19.4435 2.5471 19.2844 2.43396 19.1093 2.35679C18.9342 2.27963 18.7465 2.23993 18.557 2.23999H5.98865V20.2105H20V3.77593Z" fill="#AFA498"/>
<path d="M10.5946 6.27393C10.5946 5.72164 11.0423 5.27393 11.5946 5.27393H16.6839C17.2362 5.27393 17.6839 5.72164 17.6839 6.27393V6.95013C17.6839 7.50242 17.2362 7.95013 16.6839 7.95013H11.5946C11.0423 7.95013 10.5946 7.50242 10.5946 6.95013V6.27393Z" fill="#D5CDC4"/>
<path d="M6.00159 2.23999C7.10727 2.23999 8.0036 3.13632 8.0036 4.242L8.0036 20.2105L3.99959 20.2105L3.99959 4.242C3.99959 3.13632 4.89592 2.23999 6.00159 2.23999Z" fill="#888077"/>
<path d="M3.99982 20.3289C3.99982 19.2734 4.85542 18.4178 5.91085 18.4178H18.0884C19.1439 18.4178 19.9995 19.2734 19.9995 20.3289C19.9995 21.3843 19.1439 22.2399 18.0884 22.2399H5.91085C4.85541 22.2399 3.99982 21.3843 3.99982 20.3289Z" fill="#D5CDC4"/>
<path d="M6.53741 20.3288C6.53741 20.1112 6.71381 19.9348 6.9314 19.9348H17.0678C17.2854 19.9348 17.4618 20.1112 17.4618 20.3288C17.4618 20.5464 17.2854 20.7228 17.0678 20.7228H6.9314C6.71381 20.7228 6.53741 20.5464 6.53741 20.3288Z" fill="#AFA498"/>
</svg>
