<svg width="24" height="25" viewBox="0 0 24 25" fill="none" xmlns="http://www.w3.org/2000/svg">
<path d="M2 17.0448H22V18.2143C22 18.6998 21.8477 19.1654 21.5765 19.5087C21.3054 19.8519 20.9377 20.0448 20.5542 20.0448H3.44578C3.06234 20.0448 2.6946 19.8519 2.42346 19.5087C2.15232 19.1654 2 18.6998 2 18.2143V17.0448Z" fill="#FFC999"/>
<path d="M3.79785 10.4531C3.79785 9.96461 4.19386 9.5686 4.68235 9.5686H19.317C19.8055 9.5686 20.2015 9.96461 20.2015 10.4531C20.2015 10.9416 19.8055 11.3376 19.317 11.3376H4.68235C4.19386 11.3376 3.79785 10.9416 3.79785 10.4531Z" fill="#71482A"/>
<path d="M3.79785 13.3067C3.79785 12.8182 4.19386 12.4222 4.68235 12.4222H19.317C19.8055 12.4222 20.2015 12.8182 20.2015 13.3067C20.2015 13.7952 19.8055 14.1912 19.317 14.1912H4.68235C4.19386 14.1912 3.79785 13.7952 3.79785 13.3067Z" fill="#71482A"/>
<path d="M3.79785 16.1603C3.79785 15.6718 4.19386 15.2758 4.68235 15.2758H19.317C19.8055 15.2758 20.2015 15.6718 20.2015 16.1603C20.2015 16.6488 19.8055 17.0448 19.317 17.0448H4.68235C4.19386 17.0448 3.79785 16.6488 3.79785 16.1603Z" fill="#71482A"/>
<path d="M3.79785 9.236C3.79785 8.31782 4.45702 7.57349 5.27014 7.57349H18.7292C19.5423 7.57349 20.2015 8.31782 20.2015 9.236C20.2015 9.41963 20.0697 9.5685 19.907 9.5685H4.09231C3.92969 9.5685 3.79785 9.41963 3.79785 9.236Z" fill="#FEE589"/>
<path d="M3.79785 11.8798C3.79785 11.5803 4.04065 11.3375 4.34015 11.3375H19.6592C19.9587 11.3375 20.2015 11.5803 20.2015 11.8798C20.2015 12.1793 19.9587 12.4221 19.6592 12.4221H4.34015C4.04065 12.4221 3.79785 12.1793 3.79785 11.8798Z" fill="#D9975A"/>
<path d="M3.79785 14.7335C3.79785 14.434 4.04065 14.1912 4.34015 14.1912H19.6592C19.9587 14.1912 20.2015 14.434 20.2015 14.7335C20.2015 15.033 19.9587 15.2758 19.6592 15.2758H4.34015C4.04065 15.2758 3.79785 15.033 3.79785 14.7335Z" fill="#D9975A"/>
<path d="M8.78707 6.28844C8.78707 7.17567 8.06771 7.57358 7.18064 7.57358C6.29358 7.57358 5.57422 7.17567 5.57422 6.28844C5.57422 5.59799 6.54708 4.81474 6.97863 4.50126C7.09992 4.41315 7.26136 4.41316 7.38265 4.50127C7.8142 4.81478 8.78707 5.59812 8.78707 6.28844Z" fill="#FB7A05"/>
<path d="M12.0002 6.28844C12.0002 7.17567 11.2808 7.57358 10.3937 7.57358C9.50668 7.57358 8.78707 7.17567 8.78707 6.28844C8.78707 5.59799 9.76018 4.81474 10.1917 4.50126C10.313 4.41315 10.4745 4.41316 10.5958 4.50127C11.0273 4.81478 12.0002 5.59812 12.0002 6.28844Z" fill="#FB7A05"/>
<path d="M15.2129 6.28844C15.2129 7.17567 14.4935 7.57358 13.6065 7.57358C12.7194 7.57358 12.0002 7.17567 12.0002 6.28844C12.0002 5.59799 12.9729 4.81474 13.4045 4.50126C13.5258 4.41315 13.6872 4.41316 13.8085 4.50127C14.24 4.81478 15.2129 5.59812 15.2129 6.28844Z" fill="#FB7A05"/>
<path d="M18.4256 6.28844C18.4256 7.17567 17.7063 7.57358 16.8192 7.57358C15.9321 7.57358 15.2129 7.17567 15.2129 6.28844C15.2129 5.59799 16.1856 4.81474 16.6172 4.50126C16.7385 4.41315 16.8999 4.41316 17.0212 4.50127C17.4528 4.81478 18.4256 5.59812 18.4256 6.28844Z" fill="#FB7A05"/>
</svg>
