<svg width="24" height="25" viewBox="0 0 24 25" fill="none" xmlns="http://www.w3.org/2000/svg">
<path d="M11.4687 2.99184C11.4687 2.57661 11.1321 2.23999 10.7169 2.23999C10.3017 2.23999 9.96504 2.57661 9.96504 2.99184L9.96504 5.73808C9.96504 6.15331 10.3017 6.48993 10.7169 6.48993C11.1321 6.48993 11.4687 6.15331 11.4687 5.73808L11.4687 2.99184Z" fill="#FEE589"/>
<path d="M8.32227 3.96963C8.32227 3.55439 7.98565 3.21777 7.57041 3.21777C7.15517 3.21777 6.81856 3.55439 6.81856 3.96963L6.81856 5.7381C6.81856 6.15334 7.15517 6.48996 7.57041 6.48996C7.98565 6.48996 8.32227 6.15334 8.32227 5.7381L8.32227 3.96963Z" fill="#FEE589"/>
<path d="M14.6162 3.96963C14.6162 3.55439 14.2796 3.21777 13.8644 3.21777C13.4491 3.21777 13.1125 3.55439 13.1125 3.96963L13.1125 5.7381C13.1125 6.15334 13.4491 6.48996 13.8644 6.48996C14.2796 6.48996 14.6162 6.15334 14.6162 5.7381L14.6162 3.96963Z" fill="#FEE589"/>
<path d="M17.0564 16.9147L15.5255 16.9159L15.5195 9.21139L17.0505 9.21021C19.1746 9.20856 20.904 10.9353 20.9057 13.0594C20.9073 15.1836 19.1805 16.913 17.0564 16.9147ZM16.8091 15.6303L17.0554 15.6301C18.4712 15.629 19.6222 14.4763 19.6211 13.0605C19.62 11.6446 18.4673 10.4937 17.0514 10.4948L16.8051 10.495L16.8091 15.6303Z" fill="#FFA14E"/>
<path d="M6.3252 18.7861H15.1079V20.1913H6.3252V18.7861Z" fill="#FB7A05"/>
<path d="M4.16073 7.72221H17.2811C17.4057 7.72221 17.5253 7.76882 17.6134 7.85179C17.7015 7.93476 17.751 8.04729 17.751 8.16463V16.0421C17.751 16.8209 17.4224 17.5678 16.8375 18.1185C16.2526 18.6692 15.4593 18.9785 14.6321 18.9785H6.80352C5.97632 18.9785 5.183 18.6692 4.59809 18.1185C4.01317 17.5678 3.68457 16.8209 3.68457 16.0421V8.16071C3.68511 8.10245 3.69787 8.04486 3.72212 7.99125C3.74637 7.93763 3.78163 7.88906 3.82588 7.84832C3.87012 7.80757 3.92248 7.77546 3.97994 7.75381C4.03741 7.73217 4.09884 7.72143 4.16073 7.72221Z" fill="#FFA14E"/>
<path d="M3.09473 21.2157C3.09473 20.65 3.55331 20.1914 4.119 20.1914H17.3157C17.8814 20.1914 18.34 20.65 18.34 21.2157C18.34 21.7814 17.8814 22.24 17.3157 22.24H4.119C3.55331 22.24 3.09473 21.7814 3.09473 21.2157Z" fill="#FFC999"/>
</svg>
