<svg width="24" height="25" viewBox="0 0 24 25" fill="none" xmlns="http://www.w3.org/2000/svg">
<path d="M5.69985 4.97668C6.6229 4.97668 7.46644 5.31517 8.11434 5.87431C8.32303 6.05442 8.64391 6.05442 8.85261 5.87431C9.50052 5.31517 10.3441 4.97668 11.2671 4.97668C13.3104 4.97668 14.9668 6.63309 14.9668 8.67637C14.9668 10.6804 13.2929 13.0296 8.72652 15.933C8.5792 16.0267 8.38759 16.0267 8.24026 15.933C3.67385 13.0296 2 10.6804 2 8.67637C2.00016 6.63309 3.65657 4.97668 5.69985 4.97668Z" fill="#AFA498"/>
<path fill-rule="evenodd" clip-rule="evenodd" d="M14.9292 9.19901C14.3152 8.74521 13.5562 8.47668 12.734 8.47668C11.7548 8.47668 10.8645 8.8571 10.2027 9.4782C9.29018 10.152 8.69834 11.2351 8.69824 12.4564C8.69824 13.3233 9.01148 14.2548 9.73663 15.2679C9.85859 15.1846 9.9781 15.1017 10.0952 15.0193C9.35394 13.9941 9.03418 13.0522 9.03418 12.1764C9.03427 11.1123 9.48352 10.1531 10.2027 9.4782C10.8168 9.02476 11.5761 8.75671 12.3981 8.75671C13.3211 8.75671 14.1647 9.0952 14.8126 9.65434C14.8189 9.65984 14.8254 9.66516 14.832 9.67032C14.8748 9.51111 14.907 9.35404 14.9292 9.19901Z" fill="#888077"/>
<path d="M12.7331 8.47681C13.6561 8.47681 14.4996 8.81529 15.1475 9.37443C15.3562 9.55454 15.6771 9.55454 15.8858 9.37444C16.5337 8.8153 17.3773 8.47681 18.3003 8.47681C20.3436 8.47681 22 10.1332 22 12.1765C22 14.1806 20.3261 16.5298 15.7597 19.4332C15.6124 19.5268 15.4208 19.5268 15.2735 19.4332C10.7071 16.5298 9.0332 14.1805 9.0332 12.1765C9.03337 10.1332 10.6898 8.47681 12.7331 8.47681Z" fill="#CDC3B9"/>
</svg>
