<svg width="24" height="25" viewBox="0 0 24 25" fill="none" xmlns="http://www.w3.org/2000/svg">
<path fill-rule="evenodd" clip-rule="evenodd" d="M15.287 4.84106H12.5487V7.58424C12.5487 7.58443 12.5487 7.58461 12.5487 7.5848V7.69598H12.551C12.5685 8.12443 12.687 8.55507 12.9163 8.95218L16.8862 15.8283C17.643 17.139 19.319 17.5881 20.6298 16.8314C21.9405 16.0746 22.3896 14.3986 21.6328 13.0879L17.6629 6.21174C17.1655 5.35027 16.271 4.861 15.3442 4.84166V4.84106H15.287Z" fill="#888077"/>
<path fill-rule="evenodd" clip-rule="evenodd" d="M8.71336 4.84106H11.4517V7.58423C11.4517 7.58442 11.4517 7.58461 11.4517 7.5848V7.69598H11.4494C11.4319 8.12443 11.3134 8.55507 11.0841 8.95218L7.11415 15.8283C6.3574 17.139 4.68137 17.5881 3.37064 16.8314C2.05991 16.0746 1.61082 14.3986 2.36757 13.0879L6.33751 6.21174C6.83488 5.35027 7.72935 4.861 8.65622 4.84166V4.84106H8.71336Z" fill="#888077"/>
<path d="M6.34058 10.0885C6.34058 6.96213 8.87497 4.42773 12.0013 4.42773C15.1276 4.42773 17.662 6.96212 17.662 10.0885V15.1822H6.34058V10.0885Z" fill="#CDC3B9"/>
<path d="M6.34058 17.6122C6.34058 17.208 6.66823 16.8804 7.07241 16.8804H16.9293C17.3334 16.8804 17.6611 17.208 17.6611 17.6122C17.6611 18.0164 17.3334 18.344 16.9293 18.344H7.07241C6.66823 18.344 6.34058 18.0164 6.34058 17.6122Z" fill="#888077"/>
<path d="M9.43395 10.654C9.74655 10.654 9.99997 10.4006 9.99997 10.088C9.99997 9.77539 9.74655 9.52197 9.43395 9.52197C9.12134 9.52197 8.86792 9.77539 8.86792 10.088C8.86792 10.4006 9.12134 10.654 9.43395 10.654Z" fill="#888077"/>
<path d="M14.5658 10.654C14.8784 10.654 15.1318 10.4006 15.1318 10.088C15.1318 9.77539 14.8784 9.52197 14.5658 9.52197C14.2532 9.52197 13.9998 9.77539 13.9998 10.088C13.9998 10.4006 14.2532 10.654 14.5658 10.654Z" fill="#888077"/>
<path d="M16.5293 16.8804H7.47285C6.87237 16.8804 6.29648 16.6418 5.87188 16.2172C5.44728 15.7926 5.20874 15.2168 5.20874 14.6163C5.20874 14.0158 5.44728 13.4399 5.87188 13.0153C6.29648 12.5907 6.87237 12.3522 7.47285 12.3522H16.5293C17.1297 12.3522 17.7056 12.5907 18.1302 13.0153C18.5548 13.4399 18.7934 14.0158 18.7934 14.6163C18.7934 15.2168 18.5548 15.7926 18.1302 16.2172C17.7056 16.6418 17.1297 16.8804 16.5293 16.8804Z" fill="#E2DDD7"/>
<path d="M12.5662 12.9182L12.5662 16.3143C12.5662 16.4645 12.5065 16.6084 12.4004 16.7146C12.2942 16.8207 12.1503 16.8804 12.0001 16.8804C11.85 16.8804 11.706 16.8207 11.5999 16.7146C11.4937 16.6084 11.4341 16.4645 11.4341 16.3143L11.4341 12.9182L12.5662 12.9182Z" fill="#CDC3B9"/>
<path d="M12.0006 13.4842C12.9384 13.4842 13.6986 12.9774 13.6986 12.3521C13.6986 11.7269 12.9384 11.2201 12.0006 11.2201C11.0627 11.2201 10.3025 11.7269 10.3025 12.3521C10.3025 12.9774 11.0627 13.4842 12.0006 13.4842Z" fill="#888077"/>
<path d="M12.0011 20.0523C12.6749 20.0523 13.2211 19.506 13.2211 18.8322C13.2211 18.1584 12.6749 17.6122 12.0011 17.6122C11.3272 17.6122 10.781 18.1584 10.781 18.8322C10.781 19.506 11.3272 20.0523 12.0011 20.0523Z" fill="#CDC3B9"/>
<path d="M7.47301 15.1822C7.78562 15.1822 8.03903 14.9288 8.03903 14.6162C8.03903 14.3036 7.78562 14.0502 7.47301 14.0502C7.1604 14.0502 6.90698 14.3036 6.90698 14.6162C6.90698 14.9288 7.1604 15.1822 7.47301 15.1822Z" fill="#CDC3B9"/>
<path d="M9.7372 15.1822C10.0498 15.1822 10.3032 14.9288 10.3032 14.6162C10.3032 14.3036 10.0498 14.0502 9.7372 14.0502C9.42459 14.0502 9.17117 14.3036 9.17117 14.6162C9.17117 14.9288 9.42459 15.1822 9.7372 15.1822Z" fill="#CDC3B9"/>
<path d="M14.2651 15.1822C14.5777 15.1822 14.8311 14.9288 14.8311 14.6162C14.8311 14.3036 14.5777 14.0502 14.2651 14.0502C13.9525 14.0502 13.6991 14.3036 13.6991 14.6162C13.6991 14.9288 13.9525 15.1822 14.2651 15.1822Z" fill="#CDC3B9"/>
<path d="M16.5294 15.1822C16.842 15.1822 17.0955 14.9288 17.0955 14.6162C17.0955 14.3036 16.842 14.0502 16.5294 14.0502C16.2168 14.0502 15.9634 14.3036 15.9634 14.6162C15.9634 14.9288 16.2168 15.1822 16.5294 15.1822Z" fill="#CDC3B9"/>
</svg>
