<svg width="24" height="25" viewBox="0 0 24 25" fill="none" xmlns="http://www.w3.org/2000/svg">
<path d="M6.45142 2.7642C6.34289 2.51715 6.52385 2.23999 6.7937 2.23999H15.3234C15.5932 2.23999 15.7742 2.51715 15.6657 2.7642L14.0545 6.43191C13.9948 6.56771 13.8605 6.6554 13.7122 6.6554H8.40491C8.25658 6.6554 8.12228 6.56771 8.06263 6.43191L6.45142 2.7642Z" fill="#FEE589"/>
<path d="M17.763 18.6604L16.1767 19.029L14.3218 11.0457L15.9081 10.6771C18.1091 10.1657 20.3158 11.5403 20.8272 13.7413C21.3387 15.9423 19.964 18.149 17.763 18.6604ZM17.1985 17.3887L17.4538 17.3293C18.9208 16.9885 19.837 15.5176 19.4962 14.0506C19.1553 12.5835 17.6845 11.6673 16.2174 12.0082L15.9621 12.0675L17.1985 17.3887Z" fill="#8F8F8F"/>
<path fill-rule="evenodd" clip-rule="evenodd" d="M3.1508 19.2801L5.33723 11.793L4.20826 10.1071C3.87559 9.61031 4.23165 8.94336 4.82953 8.94336H6.1694H7.10653H14.4477C15.3364 8.94336 16.1184 9.52971 16.3675 10.3827L18.9658 19.2801C19.4046 20.7826 18.087 22.24 16.29 22.24H5.82663C4.02957 22.24 2.71204 20.7826 3.1508 19.2801Z" fill="white"/>
<path d="M5.28429 15.68C5.3383 15.4745 5.60254 15.3565 5.83743 15.4342C6.44809 15.6363 6.79685 15.9508 7.87827 15.9508C9.47069 15.9508 9.47069 15.2672 11.0633 15.2672C12.6547 15.2672 12.6547 15.9508 14.2462 15.9508C15.3247 15.9508 15.6734 15.637 16.282 15.4349C16.5169 15.3569 16.7811 15.4748 16.8351 15.6804L17.8074 19.3782C17.8893 19.6906 17.8629 20.0226 17.6916 20.3089C17.4028 20.7909 16.8336 21.0775 16.2128 21.0775H5.95634C5.57184 21.0775 5.18753 20.9851 4.88793 20.7844C4.38375 20.4469 4.16905 19.9229 4.30156 19.4181L5.28429 15.68Z" fill="#50331E"/>
<path d="M12.05 12.8931C12.05 13.4412 11.6057 13.8856 11.0575 13.8856C10.5093 13.8856 10.0649 13.4412 10.0649 12.8931C10.0649 12.6882 10.2036 12.4027 10.3772 12.1254C10.6967 11.6153 11.4183 11.6153 11.7377 12.1254C11.9114 12.4027 12.05 12.6882 12.05 12.8931Z" fill="#50331E"/>
<path d="M6.22043 8.20253C6.22043 7.79341 6.55209 7.46175 6.96122 7.46175H15.1544C15.5635 7.46175 15.8952 7.79341 15.8952 8.20253C15.8952 8.61165 15.5635 8.94331 15.1544 8.94331H6.96122C6.55209 8.94331 6.22043 8.61165 6.22043 8.20253Z" fill="#BABABA"/>
<path d="M5.68077 4.63347C5.46524 4.25962 5.73506 3.7926 6.16659 3.7926H15.9488C16.3803 3.7926 16.6501 4.25962 16.4346 4.63347L14.7308 7.58873C14.6307 7.7624 14.4455 7.86942 14.245 7.86942H7.87037C7.6699 7.86942 7.48468 7.7624 7.38455 7.58873L5.68077 4.63347Z" fill="#BABABA"/>
</svg>
