<svg width="24" height="25" viewBox="0 0 24 25" fill="none" xmlns="http://www.w3.org/2000/svg">
<path d="M4.54967 6.75312C4.36964 6.93316 4.36964 7.22505 4.54967 7.40508C4.72971 7.58511 5.0216 7.58511 5.20163 7.40508L6.01658 6.59013C6.19661 6.4101 6.19661 6.11821 6.01658 5.93817C5.83655 5.75814 5.54465 5.75814 5.36462 5.93817L4.54967 6.75312Z" fill="#FEE589"/>
<path d="M5.19884 3.81511C5.01881 3.63508 4.72692 3.63508 4.54688 3.81511C4.36685 3.99515 4.36685 4.28704 4.54688 4.46707L5.36183 5.28202C5.54187 5.46205 5.83376 5.46205 6.01379 5.28202C6.19382 5.10199 6.19382 4.8101 6.01379 4.63006L5.19884 3.81511Z" fill="#FEE589"/>
<path d="M19.4466 6.56039C19.6671 6.68769 19.7426 6.96964 19.6153 7.19013C19.488 7.41063 19.2061 7.48618 18.9856 7.35887L17.9875 6.78262C17.767 6.65532 17.6914 6.37337 17.8187 6.15288C17.946 5.93238 18.228 5.85683 18.4485 5.98414L19.4466 6.56039Z" fill="#FEE589"/>
<path d="M18.802 3.81499C18.982 3.63496 19.2739 3.63496 19.4539 3.81499C19.6339 3.99503 19.6339 4.28692 19.4539 4.46695L18.639 5.2819C18.4589 5.46193 18.167 5.46193 17.987 5.2819C17.807 5.10187 17.807 4.80997 17.987 4.62994L18.802 3.81499Z" fill="#FEE589"/>
<path d="M10.2259 2.42322C10.7158 2.42322 11.1706 2.57274 11.5476 2.82846C11.8136 3.00891 12.1888 3.00891 12.4548 2.82846C12.8318 2.57274 13.2866 2.42322 13.7765 2.42322C15.0797 2.42322 16.1361 3.47964 16.1361 4.7828C16.1361 6.04235 15.0994 7.51566 12.2822 9.33033C12.111 9.44058 11.8913 9.44058 11.7201 9.33033C8.90289 7.51566 7.86618 6.0423 7.86618 4.7828C7.86629 3.47964 8.92271 2.42322 10.2259 2.42322Z" fill="#FB8905"/>
<path fill-rule="evenodd" clip-rule="evenodd" d="M12.0008 22.0568C16.0743 22.0568 19.4559 19.0945 20.1091 15.2066C20.1466 15.209 20.1843 15.2102 20.2224 15.2102C21.2042 15.2102 22.0001 14.4143 22.0001 13.4325C22.0001 12.4507 21.2042 11.6548 20.2224 11.6548C20.1253 11.6548 20.0301 11.6625 19.9373 11.6775C18.9897 8.18274 15.7954 5.61218 12.0008 5.61218C8.20607 5.61218 5.01176 8.18283 4.06428 11.6777C3.97097 11.6626 3.87521 11.6547 3.77762 11.6547C2.79582 11.6547 1.99991 12.4506 1.99991 13.4324C1.99991 14.4142 2.79582 15.2101 3.77762 15.2101C3.8162 15.2101 3.8545 15.2089 3.89246 15.2065C4.54555 19.0944 7.92723 22.0568 12.0008 22.0568Z" fill="#FFDABA"/>
<path fill-rule="evenodd" clip-rule="evenodd" d="M9.49939 14.7546C9.71958 14.7546 9.89807 14.9331 9.89807 15.1533C9.89807 16.1694 10.8062 17.05 11.9998 17.05C13.1934 17.05 14.1015 16.1694 14.1015 15.1533C14.1015 14.9331 14.28 14.7546 14.5002 14.7546C14.7204 14.7546 14.8989 14.9331 14.8989 15.1533C14.8989 16.6726 13.5681 17.8473 11.9998 17.8473C10.4315 17.8473 9.10071 16.6726 9.10071 15.1533C9.10071 14.9331 9.2792 14.7546 9.49939 14.7546Z" fill="#FB8905"/>
<path d="M10.4057 11.7253C10.4057 12.0667 10.1289 12.3435 9.78751 12.3435C9.44609 12.3435 9.16931 12.0667 9.16931 11.7253C9.16931 11.3838 9.44609 11.1071 9.78751 11.1071C10.1289 11.1071 10.4057 11.3838 10.4057 11.7253Z" fill="#121212"/>
<path d="M14.8318 11.7253C14.8318 12.0667 14.5551 12.3435 14.2136 12.3435C13.8722 12.3435 13.5954 12.0667 13.5954 11.7253C13.5954 11.3838 13.8722 11.1071 14.2136 11.1071C14.5551 11.1071 14.8318 11.3838 14.8318 11.7253Z" fill="#121212"/>
<path d="M10.0249 5.69674C10.0249 5.15115 10.4672 4.70886 11.0128 4.70886C11.5584 4.70886 12.0007 5.15115 12.0007 5.69674V7.97002C12.0007 8.51561 11.5584 8.9579 11.0128 8.9579C10.4672 8.9579 10.0249 8.51561 10.0249 7.97002V5.69674Z" fill="#FB7A05"/>
<path d="M12.0004 5.69674C12.0004 5.15115 12.4427 4.70886 12.9883 4.70886C13.5339 4.70886 13.9762 5.15115 13.9762 5.69674V7.97002C13.9762 8.51561 13.5339 8.9579 12.9883 8.9579C12.4427 8.9579 12.0004 8.51561 12.0004 7.97002V5.69674Z" fill="#FB7A05"/>
<circle opacity="0.4" cx="7.51465" cy="14.077" r="0.822266" fill="#FB7A05"/>
<circle opacity="0.4" cx="16.4854" cy="14.077" r="0.822266" fill="#FB7A05"/>
</svg>
