<svg width="24" height="25" viewBox="0 0 24 25" fill="none" xmlns="http://www.w3.org/2000/svg">
<path d="M21.9502 12.24C21.9502 17.7353 17.4953 22.1902 12 22.1902C6.50466 22.1902 2.0498 17.7353 2.0498 12.24C2.0498 6.74465 6.50466 2.28979 12 2.28979C17.4953 2.28979 21.9502 6.74465 21.9502 12.24Z" fill="#FEE589"/>
<path opacity="0.4" d="M8.14908 12.2399C8.14908 13.4281 7.18591 14.3912 5.99778 14.3912C4.80965 14.3912 3.84648 13.4281 3.84648 12.2399C3.84648 11.0518 4.80965 10.0886 5.99778 10.0886C7.18591 10.0886 8.14908 11.0518 8.14908 12.2399Z" fill="#FF8922"/>
<path opacity="0.4" d="M20.1542 12.2399C20.1542 13.4281 19.191 14.3912 18.0029 14.3912C16.8148 14.3912 15.8516 13.4281 15.8516 12.2399C15.8516 11.0518 16.8148 10.0886 18.0029 10.0886C19.191 10.0886 20.1542 11.0518 20.1542 12.2399Z" fill="#FF8922"/>
<path fill-rule="evenodd" clip-rule="evenodd" d="M7.15755 11.6865C7.42401 11.6865 7.64002 11.9025 7.64002 12.169C7.64002 14.3193 9.55212 16.1313 11.9995 16.1313C14.4469 16.1313 16.359 14.3193 16.359 12.169C16.359 11.9025 16.575 11.6865 16.8414 11.6865C17.1079 11.6865 17.3239 11.9025 17.3239 12.169C17.3239 14.9283 14.9004 17.0963 11.9995 17.0963C9.0986 17.0963 6.67509 14.9283 6.67509 12.169C6.67509 11.9025 6.8911 11.6865 7.15755 11.6865Z" fill="#FB8905"/>
<path d="M10.0696 8.85383C10.0696 9.267 9.73465 9.60195 9.32148 9.60195C8.90831 9.60195 8.57336 9.267 8.57336 8.85383C8.57336 8.44066 8.90831 8.10571 9.32148 8.10571C9.73465 8.10571 10.0696 8.44066 10.0696 8.85383Z" fill="#121212"/>
<path d="M15.4256 8.85383C15.4256 9.267 15.0907 9.60195 14.6775 9.60195C14.2643 9.60195 13.9294 9.267 13.9294 8.85383C13.9294 8.44066 14.2643 8.10571 14.6775 8.10571C15.0907 8.10571 15.4256 8.44066 15.4256 8.85383Z" fill="#121212"/>
</svg>
