<svg width="24" height="25" viewBox="0 0 24 25" fill="none" xmlns="http://www.w3.org/2000/svg">
<path d="M15.8718 13.2204C15.6579 13.2204 15.4846 13.0448 15.4846 12.8282V10.0832C15.4846 9.86657 15.658 9.69104 15.8718 9.69104C16.0856 9.69104 16.259 9.86664 16.259 10.0832V12.8282C16.259 13.0448 16.0856 13.2204 15.8718 13.2204Z" fill="#888077"/>
<path d="M15.8715 14.789C15.231 14.789 14.71 14.2612 14.71 13.6125C14.71 12.9638 15.231 12.436 15.8715 12.436C16.5121 12.436 17.0331 12.9638 17.0331 13.6125C17.0331 14.2612 16.512 14.789 15.8715 14.789Z" fill="#888077"/>
<path d="M13.1613 19.1028H10.8382V11.2596H13.1613V19.1028Z" fill="#D5CDC4"/>
<path d="M13.7422 12.044H10.2575C10.0436 12.044 9.8703 11.8684 9.8703 11.6519V10.0833H14.1294V11.6519C14.1294 11.8684 13.956 12.044 13.7422 12.044Z" fill="#CDC3B9"/>
<path d="M15.4845 20.2792H8.51501V18.7106C8.51501 18.494 8.68839 18.3185 8.90218 18.3185H15.0973C15.3112 18.3185 15.4845 18.4941 15.4845 18.7106V20.2792Z" fill="#D5CDC4"/>
<path d="M16.646 21.8479H7.35339V20.2793C7.35339 20.0627 7.52677 19.8872 7.74056 19.8872H16.2588C16.4727 19.8872 16.646 20.0628 16.646 20.2793V21.8479Z" fill="#CDC3B9"/>
<path d="M18.742 9.92313L15.4509 2.47212C15.3886 2.33092 15.2499 2.23999 15.0974 2.23999H13.6766L13.4373 2.98999L12.8903 2.23999H11.1099L10.6851 2.54066L10.3215 2.23999H8.90238C8.7498 2.23999 8.61117 2.33099 8.54884 2.47212L5.2577 9.92313C5.1433 10.1825 5.33109 10.4753 5.61123 10.4753H8.8226L9.27263 10.1444L9.6103 10.4753H14.3861L14.6958 9.97773L15.1726 10.4753H18.3886C18.6687 10.4753 18.8564 10.1825 18.742 9.92313Z" fill="#AFA498"/>
<path d="M16.5527 22.24H7.44674C7.26046 22.24 7.1095 22.0644 7.1095 21.8478C7.1095 21.6313 7.26051 21.4557 7.44674 21.4557H16.5527C16.739 21.4557 16.89 21.6313 16.89 21.8478C16.89 22.0644 16.739 22.24 16.5527 22.24Z" fill="#AFA498"/>
<path d="M15.175 10.4753H14.3878L12.8898 2.23999H13.6769L15.175 10.4753Z" fill="#D5CDC4"/>
<path d="M11.1095 2.23999L9.61185 10.4753H8.82428L10.3219 2.23999H11.1095Z" fill="#D5CDC4"/>
</svg>
