<svg width="24" height="25" viewBox="0 0 24 25" fill="none" xmlns="http://www.w3.org/2000/svg">
<path d="M4.79934 2.23999H19.1993C19.563 2.23999 19.9119 2.36013 20.1691 2.57398C20.4262 2.78783 20.5707 3.07787 20.5707 3.3803V14.4984H3.42792V3.3803C3.42792 3.07787 3.57241 2.78783 3.8296 2.57398C4.08679 2.36013 4.43562 2.23999 4.79934 2.23999Z" fill="#BABABA"/>
<path d="M18.7494 3.69348H5.25264C5.06629 3.69348 4.91522 3.82035 4.91522 3.97686V12.7615C4.91522 12.918 5.06629 13.0449 5.25264 13.0449H18.7494C18.9358 13.0449 19.0868 12.918 19.0868 12.7615V3.97686C19.0868 3.82035 18.9358 3.69348 18.7494 3.69348Z" fill="#767676"/>
<path d="M20.5719 14.4983L21.4756 20.4569C21.518 20.6553 21.533 20.8695 21.5195 21.0809C21.5059 21.2923 21.4642 21.4945 21.3979 21.6701C21.3315 21.8457 21.2426 21.9893 21.1388 22.0886C21.035 22.1878 20.9194 22.2397 20.802 22.2398H3.20066C3.08316 22.2402 2.96737 22.1887 2.86334 22.0896C2.75931 21.9905 2.67017 21.847 2.60366 21.6713C2.53714 21.4957 2.49525 21.2933 2.48162 21.0817C2.46799 20.87 2.48303 20.6556 2.52544 20.4569L3.42912 14.4983H20.5719Z" fill="#BABABA"/>
<path d="M20.5719 14.4983L21.4756 20.4569C21.518 20.6553 21.533 20.8695 21.5195 21.0809C21.5059 21.2923 21.4642 21.4945 21.3979 21.6701C21.3315 21.8457 21.2426 21.9893 21.1388 22.0886C21.035 22.1878 20.9194 22.2397 20.802 22.2398H3.20066C3.08316 22.2402 2.96737 22.1887 2.86334 22.0896C2.75931 21.9905 2.67017 21.847 2.60366 21.6713C2.53714 21.4957 2.49525 21.2933 2.48162 21.0817C2.46799 20.87 2.48303 20.6556 2.52544 20.4569L3.42912 14.4983H20.5719Z" fill="#767676" fill-opacity="0.2"/>
<path d="M15.8106 20.4889L15.5781 18.9468C15.5551 18.794 15.4838 18.6553 15.3769 18.5552C15.2699 18.4551 15.1344 18.4002 14.9943 18.4003L9.00781 18.4003C8.86771 18.4002 8.73214 18.4551 8.62522 18.5552C8.51831 18.6553 8.44698 18.794 8.42394 18.9468L8.19153 20.4889H15.8106Z" fill="#D7D7D7"/>
<path d="M3.35121 20.489C2.86772 20.489 2.47577 20.881 2.47577 21.3645C2.47577 21.848 2.86772 22.2399 3.35121 22.2399H20.6481C21.1316 22.2399 21.5235 21.848 21.5235 21.3645C21.5235 20.881 21.1316 20.489 20.6481 20.489H3.35121Z" fill="#939598"/>
<path d="M11.3332 15.5634C11.3332 15.7597 11.174 15.9189 10.9777 15.9189C10.7814 15.9189 10.6222 15.7597 10.6222 15.5634C10.6222 15.367 10.7814 15.2079 10.9777 15.2079C11.174 15.2079 11.3332 15.367 11.3332 15.5634Z" fill="#767676"/>
<path d="M12.3566 15.5634C12.3566 15.7597 12.1975 15.9189 12.0011 15.9189C11.8048 15.9189 11.6456 15.7597 11.6456 15.5634C11.6456 15.367 11.8048 15.2079 12.0011 15.2079C12.1975 15.2079 12.3566 15.367 12.3566 15.5634Z" fill="#767676"/>
<path d="M13.381 15.5634C13.381 15.7597 13.2219 15.9189 13.0255 15.9189C12.8292 15.9189 12.67 15.7597 12.67 15.5634C12.67 15.367 12.8292 15.2079 13.0255 15.2079C13.2219 15.2079 13.381 15.367 13.381 15.5634Z" fill="#767676"/>
</svg>
