<svg width="24" height="25" viewBox="0 0 24 25" fill="none" xmlns="http://www.w3.org/2000/svg">
<path d="M10.9374 11.5507C10.9374 16.0949 10.9374 16.1848 10.9374 20.0071C10.9374 20.0165 10.9374 20.3605 10.9374 20.3552H12.944C12.944 19.2766 12.944 12.6323 12.944 11.5507C12.6869 11.7306 11.4928 11.9395 10.9374 11.5507Z" fill="#D5CDC4"/>
<path d="M21.9507 11.7861C21.9507 12.5821 21.3054 13.2274 20.5094 13.2274C19.7133 13.2274 19.068 12.5821 19.068 11.7861C19.7235 11.1306 20.5094 10.3447 20.5094 10.3447C20.5094 10.3447 20.9175 10.7529 21.9507 11.7861Z" fill="#D5CDC4"/>
<path d="M19.0675 11.7861C19.0675 12.5821 18.4295 13.2274 17.6424 13.2274C16.8554 13.2274 16.2173 12.5821 16.2173 11.7861C16.8655 11.1306 17.6424 10.3447 17.6424 10.3447C17.6424 10.3447 18.046 10.7529 19.0675 11.7861Z" fill="#AFA498"/>
<path d="M16.2181 11.7861C16.2181 12.5821 15.5868 13.2274 14.808 13.2274C14.0292 13.2274 13.3978 12.5821 13.3978 11.7861C14.0392 11.1306 14.808 10.3447 14.808 10.3447C14.808 10.3447 15.2073 10.7529 16.2181 11.7861Z" fill="#D5CDC4"/>
<path d="M13.3981 11.7861C13.3981 12.5821 12.7728 13.2274 12.0015 13.2274C11.2302 13.2274 10.605 12.5821 10.605 11.7861C11.2401 11.1306 12.0015 10.3447 12.0015 10.3447C12.0015 10.3447 12.397 10.7529 13.3981 11.7861Z" fill="#AFA498"/>
<path d="M10.6048 11.7861C10.6048 12.5821 9.96252 13.2274 9.17023 13.2274C8.37794 13.2274 7.73566 12.5821 7.73566 11.7861C8.3881 11.1306 9.17023 10.3447 9.17023 10.3447C9.17023 10.3447 9.57649 10.7529 10.6048 11.7861Z" fill="#D5CDC4"/>
<path d="M7.75517 11.7861C7.75517 12.5821 7.11984 13.2274 6.33611 13.2274C5.55239 13.2274 4.91705 12.5821 4.91705 11.7861C5.56244 11.1306 6.33611 10.3447 6.33611 10.3447C6.33611 10.3447 6.73798 10.7529 7.75517 11.7861Z" fill="#AFA498"/>
<path d="M4.91017 11.7861C4.91017 12.5821 4.2698 13.2274 3.47987 13.2274C2.68993 13.2274 2.04956 12.5821 2.04956 11.7861C2.70006 11.1306 3.47987 10.3447 3.47987 10.3447C3.47987 10.3447 3.88492 10.7529 4.91017 11.7861Z" fill="#D5CDC4"/>
<path d="M12.0608 3.13794C12.0525 3.13794 12.0443 3.13902 12.036 3.13924C12.028 3.13945 12.0203 3.13873 12.0123 3.13909C12.0031 3.13953 11.9942 3.14111 11.985 3.14176C11.9679 3.14306 11.9511 3.14465 11.9342 3.14674C11.9192 3.14869 11.9043 3.15092 11.8895 3.15359C11.8692 3.15713 11.8491 3.16117 11.8292 3.16586C11.8206 3.16795 11.812 3.17011 11.8035 3.17249C11.3742 3.28618 11.0574 3.67622 11.0574 4.1412V4.16955V4.33936V4.36771V5.02898V5.22714C11.3721 5.19684 11.6869 5.18075 12.0004 5.18075C12.0093 5.18075 12.0184 5.18104 12.0274 5.18104C12.0334 5.18104 12.0395 5.18075 12.0455 5.18075C12.0484 5.18075 12.0512 5.1809 12.0539 5.1809C12.0556 5.1809 12.0572 5.18075 12.0588 5.18075C12.0593 5.18075 12.0598 5.18083 12.0603 5.18083C12.0605 5.18083 12.0607 5.18075 12.0608 5.18075C12.0612 5.18075 12.0615 5.18083 12.0618 5.18083C12.067 5.18083 12.0722 5.18119 12.0775 5.18126C12.098 5.1814 12.1183 5.18176 12.1388 5.18227C12.4466 5.18674 12.7555 5.20593 13.0642 5.23933V5.04117V4.33943V4.14113C13.0641 3.58713 12.6149 3.13794 12.0608 3.13794Z" fill="#888077"/>
<path d="M21.9508 11.7861C20.9322 7.76162 16.3412 4.78357 12.0002 4.78357C7.6592 4.78357 3.06819 7.7617 2.04956 11.7861H21.9508Z" fill="#AFA498"/>
<path d="M19.068 11.7861C18.3434 7.76162 15.0773 4.78357 11.989 4.78357C8.90068 4.78357 5.63452 7.76162 4.90991 11.7861H19.068Z" fill="#D5CDC4"/>
<path d="M16.2194 11.7861C15.7863 7.76162 13.8341 4.78357 11.9882 4.78357C10.1423 4.78357 8.19005 7.76162 7.75702 11.7861H16.2194Z" fill="#AFA498"/>
<path d="M13.3981 11.7861C13.2551 7.76162 12.6108 4.78357 12.0015 4.78357C11.3923 4.78357 10.748 7.76162 10.605 11.7861H13.3981Z" fill="#D5CDC4"/>
<path d="M5.58105 20.3087C5.58105 19.7379 6.04372 19.2753 6.61445 19.2753H17.2658C17.8365 19.2753 18.2992 19.7379 18.2992 20.3087C18.2992 20.8794 17.8365 21.3421 17.2658 21.3421H6.61445C6.04372 21.3421 5.58105 20.8794 5.58105 20.3087Z" fill="#888077"/>
</svg>
