<svg width="24" height="25" viewBox="0 0 24 25" fill="none" xmlns="http://www.w3.org/2000/svg">
<path d="M6.7909 11.5173C8.16651 11.3702 9.81303 11.7094 10.1437 13.1049C10.2139 13.017 10.2787 12.9228 10.3372 12.8215C11.186 11.3514 10.1467 9.46011 8.52064 8.52128C7.01488 7.65193 5.03525 7.62137 4.08169 8.81489C4.41239 10.2104 5.41528 11.6643 6.7909 11.5173Z" fill="#AFA498"/>
<path d="M10.1437 13.1049C9.81306 11.7094 8.48835 10.8128 7.11274 10.9599C5.73713 11.1069 4.41242 10.2104 4.08172 8.81488C4.01155 8.90272 3.94672 8.99696 3.88826 9.09822C3.03946 10.5684 4.07872 12.4597 5.70481 13.3985C7.21057 14.2678 9.19019 14.2984 10.1437 13.1049Z" fill="#888077"/>
<path d="M17.2104 11.5173C15.8348 11.3702 14.1883 11.7094 13.8577 13.1049C13.7874 13.017 13.7226 12.9228 13.6642 12.8215C12.8154 11.3514 13.8546 9.46011 15.4807 8.52128C16.9865 7.65193 18.9661 7.62137 19.9197 8.81489C19.589 10.2104 18.5861 11.6643 17.2104 11.5173Z" fill="#AFA498"/>
<path d="M13.8576 13.1049C14.1883 11.7094 15.513 10.8128 16.8886 10.9599C18.2642 11.1069 19.5889 10.2104 19.9196 8.81488C19.9898 8.90272 20.0546 8.99696 20.1131 9.09822C20.9619 10.5684 19.9226 12.4597 18.2965 13.3985C16.7908 14.2678 14.8112 14.2984 13.8576 13.1049Z" fill="#888077"/>
<path d="M12.6444 5.9633C11.8292 4.84551 11.2997 3.25 12.3429 2.26589C12.2317 2.24901 12.1177 2.23999 12.0007 2.23999C10.3031 2.23999 9.18488 4.08565 9.18487 5.9633C9.18487 7.702 10.1482 9.43168 11.6586 9.66074C12.7018 8.6766 13.4595 7.08109 12.6444 5.9633Z" fill="#AFA498"/>
<path d="M12.3442 2.26575C11.301 3.24986 11.1869 4.84537 12.0021 5.96316C12.8172 7.08095 12.7031 8.67646 11.66 9.6606C11.7711 9.67745 11.8851 9.68647 12.0021 9.68647C13.6997 9.68647 14.8179 7.84081 14.8179 5.96316C14.8179 4.22446 13.8546 2.49477 12.3442 2.26575Z" fill="#888077"/>
<path d="M2.68274 16.0492C2.68274 15.6133 3.03608 15.26 3.47195 15.26H20.5292C20.965 15.26 21.3184 15.6134 21.3184 16.0492V16.7797C21.3184 17.2155 20.965 17.5689 20.5292 17.5689H3.47195C3.03608 17.5689 2.68274 17.2155 2.68274 16.7797V16.0492Z" fill="#AFA498"/>
<path d="M21.7618 21.577C21.7618 21.9431 21.3958 22.24 20.9443 22.24L3.05588 22.24C2.60441 22.24 2.23843 21.9431 2.23843 21.577L2.23843 17.004C2.23843 16.6378 2.60441 16.341 3.05588 16.341L20.9443 16.341C21.3958 16.341 21.7618 16.6378 21.7618 17.004L21.7618 21.577Z" fill="#CDC3B9"/>
<path d="M8.7754 20.494C8.7754 21.4583 7.99366 22.2401 7.02933 22.2401C6.06501 22.2401 5.28326 21.4583 5.28326 20.494C5.28326 19.9202 5.90145 18.9868 6.40216 18.3249C6.72158 17.9026 7.33709 17.9026 7.6565 18.3249C8.15721 18.9868 8.7754 19.9202 8.7754 20.494Z" fill="#888077"/>
<path d="M7.97387 21.2956C7.97387 21.8171 7.55108 22.2399 7.02954 22.2399C6.508 22.2399 6.08521 21.8171 6.08521 21.2956C6.08521 20.9853 6.41954 20.4804 6.69034 20.1224C6.86309 19.8941 7.19598 19.8941 7.36873 20.1224C7.63953 20.4804 7.97387 20.9853 7.97387 21.2956Z" fill="#AFA498"/>
<path d="M13.7449 20.4939C13.7449 21.4582 12.9632 22.2399 11.9989 22.2399C11.0345 22.2399 10.2528 21.4582 10.2528 20.4939C10.2528 19.9201 10.871 18.9867 11.3717 18.3247C11.6911 17.9025 12.3066 17.9025 12.626 18.3247C13.1268 18.9867 13.7449 19.9201 13.7449 20.4939Z" fill="#888077"/>
<path d="M12.9432 21.2956C12.9432 21.8171 12.5204 22.2399 11.9988 22.2399C11.4773 22.2399 11.0545 21.8171 11.0545 21.2956C11.0545 20.9853 11.3888 20.4804 11.6596 20.1224C11.8324 19.8941 12.1653 19.8941 12.338 20.1224C12.6088 20.4804 12.9432 20.9853 12.9432 21.2956Z" fill="#AFA498"/>
<path d="M18.715 20.4939C18.715 21.4582 17.9333 22.2399 16.969 22.2399C16.0046 22.2399 15.2229 21.4582 15.2229 20.4939C15.2229 19.9201 15.8411 18.9867 16.3418 18.3247C16.6612 17.9025 17.2767 17.9025 17.5961 18.3247C18.0968 18.9867 18.715 19.9201 18.715 20.4939Z" fill="#888077"/>
<path d="M17.9134 21.2956C17.9134 21.8171 17.4906 22.2399 16.9691 22.2399C16.4475 22.2399 16.0247 21.8171 16.0247 21.2956C16.0247 20.9853 16.3591 20.4804 16.6299 20.1224C16.8026 19.8941 17.1355 19.8941 17.3082 20.1224C17.579 20.4804 17.9134 20.9853 17.9134 21.2956Z" fill="#AFA498"/>
</svg>
