<svg width="24" height="25" viewBox="0 0 24 25" fill="none" xmlns="http://www.w3.org/2000/svg">
<path d="M2.0332 6.81812C2.0332 5.71355 2.92262 4.81812 4.01977 4.81812H19.9793C21.0764 4.81812 21.9658 5.71355 21.9658 6.81812V17.6619C21.9658 18.7664 21.0764 19.6619 19.9793 19.6619H4.01977C2.92262 19.6619 2.0332 18.7664 2.0332 17.6619V6.81812Z" fill="#FFC999"/>
<path d="M7.08691 12.4239C7.08691 9.67276 9.3022 7.4425 12.0349 7.4425C14.7676 7.4425 16.9829 9.67276 16.9829 12.4239V19.4097C16.9829 19.5419 16.8764 19.649 16.7451 19.649H7.32465C7.19335 19.649 7.08691 19.5419 7.08691 19.4097V12.4239Z" fill="#FB7A05"/>
<path d="M8.57715 12.3069C8.57715 10.3843 10.1253 8.82568 12.035 8.82568C13.9447 8.82568 15.4928 10.3843 15.4928 12.3069V19.4368C15.4928 19.5541 15.3984 19.6491 15.282 19.6491H8.78795C8.67153 19.6491 8.57715 19.5541 8.57715 19.4368V12.3069Z" fill="#9A6B40"/>
<path d="M8.57715 17.1864H15.5136V19.449C15.5136 19.5595 15.4247 19.649 15.315 19.649H8.77581C8.66609 19.649 8.57715 19.5595 8.57715 19.449V17.1864Z" fill="#C58952"/>
</svg>
