<svg width="24" height="25" viewBox="0 0 24 25" fill="none" xmlns="http://www.w3.org/2000/svg">
<path d="M4.99698 18.8162C4.57682 18.8162 4.23621 19.1568 4.23621 19.5769V20.5045C4.23621 20.9247 4.57682 21.2653 4.99698 21.2653H19.0033C19.4235 21.2653 19.7641 20.9247 19.7641 20.5045V19.5769C19.7641 19.1568 19.4235 18.8162 19.0033 18.8162H4.99698Z" fill="#888077"/>
<path d="M17.4137 3.2146H6.58692C5.63428 3.2146 4.86198 4.00093 4.86198 4.97089V13.4833C4.86198 14.4532 5.63428 15.2395 6.58692 15.2395H17.4137C18.3663 15.2395 19.1386 14.4532 19.1386 13.4833V4.97089C19.1386 4.00093 18.3663 3.2146 17.4137 3.2146Z" fill="#AFA498"/>
<path d="M5.03473 13.5071H18.9645V16.5012H5.03473V13.5071Z" fill="#AFA498"/>
<path d="M21.9994 11.9316C21.9994 10.7106 21.0272 9.7207 19.828 9.7207C18.6288 9.7207 17.6566 10.7106 17.6566 11.9316V16.5013H6.34297V11.9316C6.34297 10.7106 5.37079 9.7207 4.17157 9.7207C2.9723 9.72066 2.00012 10.7105 2.00012 11.9316C2.00012 12.8764 2.58329 13.6806 3.40227 13.997V18.916C3.40227 19.236 3.6571 19.4955 3.97146 19.4955H4.7333H6.34297H17.6566H18.6631H20.0281C20.3424 19.4955 20.5973 19.236 20.5973 18.916V13.997C21.4162 13.6805 21.9994 12.8764 21.9994 11.9316Z" fill="#D5CDC4"/>
<path d="M8.87004 6.88147C8.87004 7.0188 8.98137 7.13013 9.1187 7.13013C9.25603 7.13013 9.36735 7.0188 9.36735 6.88147L9.36735 6.25983C9.36735 6.1225 9.25603 6.01117 9.1187 6.01117C8.98137 6.01117 8.87004 6.1225 8.87004 6.25983L8.87004 6.88147Z" fill="#888077"/>
<path d="M8.87004 8.4978C8.87004 8.63513 8.98137 8.74646 9.1187 8.74646C9.25603 8.74646 9.36735 8.63513 9.36735 8.4978L9.36735 7.87616C9.36735 7.73883 9.25603 7.62751 9.1187 7.62751C8.98137 7.62751 8.87004 7.73883 8.87004 7.87616L8.87004 8.4978Z" fill="#888077"/>
<path d="M9.61192 7.13025C9.47459 7.13025 9.36327 7.24158 9.36327 7.37891C9.36327 7.51623 9.47459 7.62756 9.61192 7.62756L10.2336 7.62756C10.3709 7.62756 10.4822 7.51623 10.4822 7.37891C10.4822 7.24158 10.3709 7.13025 10.2336 7.13025L9.61192 7.13025Z" fill="#888077"/>
<path d="M7.99522 7.13025C7.85789 7.13025 7.74657 7.24158 7.74657 7.37891C7.74657 7.51623 7.85789 7.62756 7.99522 7.62756L8.61686 7.62756C8.75419 7.62756 8.86552 7.51623 8.86552 7.37891C8.86552 7.24158 8.75419 7.13025 8.61686 7.13025L7.99522 7.13025Z" fill="#888077"/>
<path d="M14.6395 6.88159C14.6395 7.01892 14.7508 7.13025 14.8882 7.13025C15.0255 7.13025 15.1368 7.01892 15.1368 6.88159L15.1368 6.25995C15.1368 6.12262 15.0255 6.01129 14.8882 6.01129C14.7508 6.01129 14.6395 6.12262 14.6395 6.25995L14.6395 6.88159Z" fill="#888077"/>
<path d="M14.6395 8.49793C14.6395 8.63525 14.7508 8.74658 14.8882 8.74658C15.0255 8.74658 15.1368 8.63525 15.1368 8.49793L15.1368 7.87628C15.1368 7.73896 15.0255 7.62763 14.8882 7.62763C14.7508 7.62763 14.6395 7.73895 14.6395 7.87628L14.6395 8.49793Z" fill="#888077"/>
<path d="M15.3823 7.13025C15.2449 7.13025 15.1336 7.24158 15.1336 7.37891C15.1336 7.51623 15.2449 7.62756 15.3823 7.62756L16.0039 7.62756C16.1412 7.62756 16.2526 7.51623 16.2526 7.37891C16.2526 7.24158 16.1412 7.13025 16.0039 7.13025L15.3823 7.13025Z" fill="#888077"/>
<path d="M13.7664 7.13025C13.6291 7.13025 13.5178 7.24158 13.5178 7.37891C13.5178 7.51623 13.6291 7.62756 13.7664 7.62756L14.3881 7.62756C14.5254 7.62756 14.6367 7.51623 14.6367 7.37891C14.6367 7.24158 14.5254 7.13025 14.3881 7.13025L13.7664 7.13025Z" fill="#888077"/>
<path d="M8.87004 11.642C8.87004 11.7793 8.98137 11.8906 9.1187 11.8906C9.25603 11.8906 9.36735 11.7793 9.36735 11.642L9.36735 11.0203C9.36735 10.883 9.25603 10.7717 9.1187 10.7717C8.98137 10.7717 8.87004 10.883 8.87004 11.0203L8.87004 11.642Z" fill="#888077"/>
<path d="M8.87004 13.2583C8.87004 13.3956 8.98137 13.507 9.1187 13.507C9.25603 13.507 9.36735 13.3956 9.36735 13.2583L9.36735 12.6367C9.36735 12.4993 9.25603 12.388 9.1187 12.388C8.98137 12.388 8.87004 12.4993 8.87004 12.6367L8.87004 13.2583Z" fill="#888077"/>
<path d="M9.61192 11.8907C9.47459 11.8907 9.36327 12.0021 9.36327 12.1394C9.36327 12.2767 9.47459 12.3881 9.61192 12.3881L10.2336 12.3881C10.3709 12.3881 10.4822 12.2767 10.4822 12.1394C10.4822 12.0021 10.3709 11.8907 10.2336 11.8907L9.61192 11.8907Z" fill="#888077"/>
<path d="M7.99522 11.8907C7.85789 11.8907 7.74657 12.0021 7.74657 12.1394C7.74657 12.2767 7.85789 12.3881 7.99522 12.3881L8.61686 12.3881C8.75419 12.3881 8.86552 12.2767 8.86552 12.1394C8.86552 12.0021 8.75419 11.8907 8.61686 11.8907L7.99522 11.8907Z" fill="#888077"/>
<path d="M14.6395 11.6421C14.6395 11.7794 14.7508 11.8907 14.8882 11.8907C15.0255 11.8907 15.1368 11.7794 15.1368 11.6421L15.1368 11.0204C15.1368 10.8831 15.0255 10.7718 14.8882 10.7718C14.7508 10.7718 14.6395 10.8831 14.6395 11.0204L14.6395 11.6421Z" fill="#888077"/>
<path d="M14.6395 13.2584C14.6395 13.3958 14.7508 13.5071 14.8882 13.5071C15.0255 13.5071 15.1368 13.3958 15.1368 13.2584L15.1368 12.6368C15.1368 12.4995 15.0255 12.3881 14.8882 12.3881C14.7508 12.3881 14.6395 12.4995 14.6395 12.6368L14.6395 13.2584Z" fill="#888077"/>
<path d="M15.3823 11.8906C15.2449 11.8906 15.1336 12.002 15.1336 12.1393C15.1336 12.2766 15.2449 12.3879 15.3823 12.3879L16.0039 12.3879C16.1412 12.3879 16.2526 12.2766 16.2526 12.1393C16.2526 12.002 16.1412 11.8906 16.0039 11.8906L15.3823 11.8906Z" fill="#888077"/>
<path d="M13.7664 11.8909C13.6291 11.8909 13.5178 12.0022 13.5178 12.1395C13.5178 12.2769 13.6291 12.3882 13.7664 12.3882L14.3881 12.3882C14.5254 12.3882 14.6367 12.2769 14.6367 12.1395C14.6367 12.0022 14.5254 11.8909 14.3881 11.8909L13.7664 11.8909Z" fill="#888077"/>
</svg>
