<svg width="24" height="25" viewBox="0 0 24 25" fill="none" xmlns="http://www.w3.org/2000/svg">
<path d="M18.6391 4.77664C19.075 4.77664 19.4284 4.42325 19.4284 3.98732C19.4284 3.55139 19.075 3.198 18.6391 3.198H4.57755C4.14162 3.198 3.78823 3.55139 3.78823 3.98732C3.78823 4.42325 4.14162 4.77664 4.57755 4.77664H18.6391Z" fill="#888077"/>
<path d="M15.5165 6.48982C15.5165 6.06296 15.8625 5.71692 16.2894 5.71692H19.4391C19.8659 5.71692 20.212 6.06296 20.212 6.48982C20.212 6.91668 19.8659 7.26272 19.4391 7.26272H16.2894C15.8625 7.26272 15.5165 6.91668 15.5165 6.48982Z" fill="#AFA498"/>
<path d="M4.50143 4.7262V11.5183C4.50278 11.9345 4.85552 12.2716 5.29096 12.2729H17.9235C18.3589 12.2716 18.7117 11.9345 18.713 11.5183V4.7262H4.50143Z" fill="#D5CDC4"/>
<path d="M6.92568 19.7032C6.48974 19.7032 6.13635 20.0566 6.13635 20.4926C6.13635 20.9285 6.48974 21.2819 6.92568 21.2819H16.292C16.728 21.2819 17.0814 20.9285 17.0814 20.4926C17.0814 20.0566 16.728 19.7032 16.292 19.7032H6.92568Z" fill="#888077"/>
<path d="M8.70439 16.4297L7.69987 19.7034H15.5177L14.5132 16.4297C12.8086 17.7387 10.409 17.7387 8.70439 16.4297Z" fill="#AFA498"/>
<path d="M16.6963 11.2991V12.8271C16.6977 14.0433 16.1621 15.21 15.2076 16.0701C14.2528 16.93 12.9577 17.4125 11.6077 17.4112C10.7681 17.4136 9.94134 17.2258 9.2034 16.8649C8.9392 16.7423 8.68928 16.5965 8.45697 16.4295C7.23203 15.5599 6.5179 14.232 6.51914 12.8271V11.2991H16.6963Z" fill="#D5CDC4"/>
<path d="M6.55813 10.7271C6.1222 10.7271 5.76881 11.0804 5.76881 11.5164C5.76881 11.9523 6.1222 12.3057 6.55813 12.3057H16.8344C17.2703 12.3057 17.6237 11.9523 17.6237 11.5164C17.6237 11.0804 17.2703 10.7271 16.8344 10.7271H6.55813Z" fill="#AFA498"/>
</svg>
