<svg width="24" height="25" viewBox="0 0 24 25" fill="none" xmlns="http://www.w3.org/2000/svg">
<path d="M19.8594 15.7698C19.8594 15.952 20.0071 16.0997 20.1893 16.0997C20.3715 16.0997 20.5192 15.952 20.5192 15.7698L20.5192 14.9451C20.5192 14.7629 20.3715 14.6152 20.1893 14.6152C20.0071 14.6152 19.8594 14.7629 19.8594 14.9451L19.8594 15.7698Z" fill="#FB8905"/>
<path d="M19.8594 17.9141C19.8594 18.0963 20.0071 18.244 20.1893 18.244C20.3715 18.244 20.5192 18.0963 20.5192 17.9141L20.5192 17.0894C20.5192 16.9072 20.3715 16.7595 20.1893 16.7595C20.0071 16.7595 19.8594 16.9072 19.8594 17.0894L19.8594 17.9141Z" fill="#FB8905"/>
<path d="M20.8453 16.0996C20.6631 16.0996 20.5154 16.2473 20.5154 16.4295C20.5154 16.6117 20.6631 16.7594 20.8453 16.7594L21.67 16.7594C21.8522 16.7594 21.9999 16.6117 21.9999 16.4295C21.9999 16.2473 21.8522 16.0996 21.67 16.0996L20.8453 16.0996Z" fill="#FB8905"/>
<path d="M18.7002 16.0997C18.518 16.0997 18.3703 16.2474 18.3703 16.4296C18.3703 16.6118 18.518 16.7595 18.7002 16.7595L19.5249 16.7595C19.7071 16.7595 19.8548 16.6118 19.8548 16.4296C19.8548 16.2474 19.7071 16.0997 19.5249 16.0997L18.7002 16.0997Z" fill="#FB8905"/>
<path d="M18.6391 4.77664C19.075 4.77664 19.4284 4.42325 19.4284 3.98732C19.4284 3.55139 19.075 3.198 18.6391 3.198H4.57755C4.14162 3.198 3.78823 3.55139 3.78823 3.98732C3.78823 4.42325 4.14162 4.77664 4.57755 4.77664H18.6391Z" fill="#8F8F8F"/>
<path d="M15.5165 6.48982C15.5165 6.06296 15.8625 5.71692 16.2894 5.71692H19.4391C19.8659 5.71692 20.212 6.06296 20.212 6.48982C20.212 6.91668 19.8659 7.26272 19.4391 7.26272H16.2894C15.8625 7.26272 15.5165 6.91668 15.5165 6.48982Z" fill="#BABABA"/>
<path d="M4.50143 4.7262V11.5183C4.50278 11.9345 4.85552 12.2716 5.29096 12.2729H17.9235C18.3589 12.2716 18.7117 11.9345 18.713 11.5183V4.7262H4.50143Z" fill="white"/>
<path d="M6.92568 19.7032C6.48974 19.7032 6.13635 20.0566 6.13635 20.4926C6.13635 20.9285 6.48974 21.2819 6.92568 21.2819H16.292C16.728 21.2819 17.0814 20.9285 17.0814 20.4926C17.0814 20.0566 16.728 19.7032 16.292 19.7032H6.92568Z" fill="#8F8F8F"/>
<path d="M8.70439 16.4297L7.69987 19.7034H15.5177L14.5132 16.4297C12.8086 17.7387 10.409 17.7387 8.70439 16.4297Z" fill="#BABABA"/>
<path d="M16.6963 11.2991V12.8271C16.6977 14.0433 16.1621 15.21 15.2076 16.0701C14.2528 16.93 12.9577 17.4125 11.6077 17.4112C10.7681 17.4136 9.94134 17.2258 9.2034 16.8649C8.9392 16.7423 8.68928 16.5965 8.45697 16.4295C7.23203 15.5599 6.5179 14.232 6.51914 12.8271V11.2991H16.6963Z" fill="white"/>
<path d="M6.55813 10.7271C6.1222 10.7271 5.76881 11.0804 5.76881 11.5164C5.76881 11.9523 6.1222 12.3057 6.55813 12.3057H16.8344C17.2703 12.3057 17.6237 11.9523 17.6237 11.5164C17.6237 11.0804 17.2703 10.7271 16.8344 10.7271H6.55813Z" fill="#BABABA"/>
<path d="M3.48751 6.60272C3.48751 6.78492 3.63521 6.93262 3.81741 6.93262C3.9996 6.93262 4.1473 6.78492 4.1473 6.60272L4.1473 5.77798C4.1473 5.59579 3.9996 5.44809 3.81741 5.44809C3.63521 5.44809 3.48751 5.59579 3.48751 5.77798L3.48751 6.60272Z" fill="#FB8905"/>
<path d="M3.48751 8.74713C3.48751 8.92933 3.63521 9.07703 3.81741 9.07703C3.9996 9.07703 4.1473 8.92933 4.1473 8.74713L4.1473 7.92239C4.1473 7.74019 3.9996 7.5925 3.81741 7.5925C3.63521 7.5925 3.48751 7.74019 3.48751 7.92239L3.48751 8.74713Z" fill="#FB8905"/>
<path d="M4.4734 6.93262C4.2912 6.93262 4.1435 7.08032 4.1435 7.26251C4.1435 7.44471 4.2912 7.59241 4.4734 7.59241L5.29814 7.59241C5.48033 7.59241 5.62803 7.44471 5.62803 7.26251C5.62803 7.08032 5.48033 6.93262 5.29814 6.93262L4.4734 6.93262Z" fill="#FB8905"/>
<path d="M2.33015 6.93274C2.14795 6.93274 2.00025 7.08044 2.00025 7.26263C2.00025 7.44483 2.14795 7.59253 2.33015 7.59253L3.15489 7.59253C3.33708 7.59253 3.48478 7.44483 3.48478 7.26263C3.48478 7.08044 3.33708 6.93274 3.15489 6.93274L2.33015 6.93274Z" fill="#FB8905"/>
</svg>
