<svg width="24" height="25" viewBox="0 0 24 25" fill="none" xmlns="http://www.w3.org/2000/svg">
<path fill-rule="evenodd" clip-rule="evenodd" d="M10.5146 13.7247C10.8066 14.0168 10.8066 14.4902 10.5146 14.7822L4.57621 20.7206H9.50067C9.91363 20.7206 10.2484 21.0554 10.2484 21.4683C10.2484 21.8813 9.91363 22.2161 9.50067 22.2161H2.771C2.35803 22.2161 2.02326 21.8813 2.02326 21.4683L2.02326 14.7387C2.02326 14.3257 2.35803 13.9909 2.771 13.9909C3.18397 13.9909 3.51874 14.3257 3.51874 14.7387L3.51874 19.6631L9.45711 13.7247C9.74912 13.4327 10.2226 13.4327 10.5146 13.7247Z" fill="#888077"/>
<path fill-rule="evenodd" clip-rule="evenodd" d="M13.4856 10.7554C13.1936 10.4633 13.1936 9.9899 13.4856 9.69789L19.424 3.75952L14.4995 3.75952C14.0866 3.75952 13.7518 3.42475 13.7518 3.01178C13.7518 2.59881 14.0866 2.26404 14.4995 2.26404L21.2292 2.26404C21.6422 2.26404 21.9769 2.59881 21.9769 3.01178V9.74145C21.9769 10.1544 21.6422 10.4892 21.2292 10.4892C20.8162 10.4892 20.4815 10.1544 20.4815 9.74145V4.81699L14.5431 10.7554C14.2511 11.0474 13.7776 11.0474 13.4856 10.7554Z" fill="#888077"/>
<path fill-rule="evenodd" clip-rule="evenodd" d="M13.4854 13.7247C13.7774 13.4327 14.2509 13.4327 14.5429 13.7247L20.4813 19.6631V14.7387C20.4813 14.3257 20.816 13.9909 21.229 13.9909C21.642 13.9909 21.9767 14.3257 21.9767 14.7387V21.4683C21.9767 21.8813 21.642 22.2161 21.229 22.2161L14.4993 22.2161C14.0864 22.2161 13.7516 21.8813 13.7516 21.4683C13.7516 21.0554 14.0864 20.7206 14.4993 20.7206L19.4238 20.7206L13.4854 14.7822C13.1934 14.4902 13.1934 14.0168 13.4854 13.7247Z" fill="#888077"/>
<path fill-rule="evenodd" clip-rule="evenodd" d="M10.5144 10.7554C10.2224 11.0474 9.74893 11.0474 9.45692 10.7554L3.51855 4.81699L3.51855 9.74145C3.51855 10.1544 3.18378 10.4892 2.77081 10.4892C2.35785 10.4892 2.02307 10.1544 2.02307 9.74145L2.02307 3.01178C2.02307 2.59881 2.35785 2.26404 2.77081 2.26404L9.50048 2.26404C9.91345 2.26404 10.2482 2.59881 10.2482 3.01178C10.2482 3.42475 9.91345 3.75952 9.50048 3.75952L4.57602 3.75952L10.5144 9.69789C10.8064 9.9899 10.8064 10.4633 10.5144 10.7554Z" fill="#888077"/>
</svg>
