<svg width="18" height="18" viewBox="0 0 18 18" fill="none" xmlns="http://www.w3.org/2000/svg">
<path fill-rule="evenodd" clip-rule="evenodd" d="M11.3 6.4C11.3 9.1062 9.1062 11.3 6.4 11.3C3.6938 11.3 1.5 9.1062 1.5 6.4C1.5 3.6938 3.6938 1.5 6.4 1.5C9.1062 1.5 11.3 3.6938 11.3 6.4ZM10.3642 11.4248C9.27406 12.286 7.89706 12.8 6.4 12.8C2.86538 12.8 0 9.93462 0 6.4C0 2.86538 2.86538 0 6.4 0C9.93462 0 12.8 2.86538 12.8 6.4C12.8 7.89706 12.286 9.27407 11.4248 10.3642L16.8538 15.7931C17.1467 16.086 17.1467 16.5609 16.8538 16.8538C16.5609 17.1467 16.086 17.1467 15.7931 16.8538L10.3642 11.4248Z" fill="#C0B4A7"/>
</svg>
