<svg width="22" height="22" viewBox="0 0 22 22" fill="none" xmlns="http://www.w3.org/2000/svg">
<path fill-rule="evenodd" clip-rule="evenodd" d="M11 21.5318C17.0751 21.5318 22 16.7963 22 10.9549C22 5.11338 17.0751 0.37793 11 0.37793C4.92487 0.37793 0 5.11338 0 10.9549C0 16.7963 4.92487 21.5318 11 21.5318ZM16.9298 7.77215C17.221 7.47599 17.2073 7.00895 16.8993 6.72898C16.5913 6.44902 16.1056 6.46215 15.8144 6.75831L8.63376 14.0622L5.67402 11.0517C5.38286 10.7555 4.89713 10.7424 4.58912 11.0224C4.28111 11.3023 4.26746 11.7694 4.55862 12.0655L8.07606 15.6434C8.22103 15.7908 8.42274 15.8744 8.63376 15.8744C8.84479 15.8744 9.0465 15.7908 9.19146 15.6434L16.9298 7.77215Z" fill="#FF8922"/>
</svg>
