<svg width="24" height="24" viewBox="0 0 24 24" fill="none" xmlns="http://www.w3.org/2000/svg">
<path fill-rule="evenodd" clip-rule="evenodd" d="M19 2.92163C18.7271 2.92163 18.4568 2.97539 18.2046 3.07984C17.9525 3.18429 17.7233 3.33739 17.5303 3.53039L4.17118 16.8896L3.06893 20.9311L7.11052 19.8289L20.4697 6.46973C20.6627 6.27673 20.8158 6.0476 20.9202 5.79544C21.0247 5.54327 21.0784 5.273 21.0784 5.00006C21.0784 4.72711 21.0247 4.45684 20.9202 4.20468C20.8158 3.95251 20.6627 3.72339 20.4697 3.53039C20.2767 3.33739 20.0476 3.18429 19.7954 3.07984C19.5432 2.97539 19.273 2.92163 19 2.92163ZM17.6306 1.69402C18.0648 1.51419 18.5301 1.42163 19 1.42163C19.4699 1.42163 19.9353 1.51419 20.3694 1.69402C20.8036 1.87385 21.1981 2.13744 21.5303 2.46973C21.8626 2.80201 22.1262 3.1965 22.3061 3.63065C22.4859 4.06481 22.5784 4.53013 22.5784 5.00006C22.5784 5.46998 22.4859 5.93531 22.3061 6.36946C22.1262 6.80362 21.8626 7.1981 21.5303 7.53039L8.03035 21.0304C7.93806 21.1227 7.82328 21.1893 7.69736 21.2236L2.19736 22.7236C1.9377 22.7944 1.66 22.7207 1.46969 22.5304C1.27937 22.3401 1.20563 22.0624 1.27644 21.8027L2.77644 16.3027C2.81079 16.1768 2.8774 16.062 2.96969 15.9697L16.4697 2.46973C16.802 2.13744 17.1965 1.87385 17.6306 1.69402Z" fill="#121212"/>
</svg>
