<svg width="70" height="87" viewBox="0 0 70 87" fill="none" xmlns="http://www.w3.org/2000/svg">
<ellipse cx="41.091" cy="81.003" rx="22.2951" ry="5.76701" fill="#CDC3B9"/>
<path d="M40.9996 80.6965C40.5238 80.6965 40.048 80.602 39.5722 80.4131C39.0964 80.2242 38.6801 79.9723 38.3233 79.6574C29.6401 71.534 23.1574 63.9937 18.8753 57.0365C14.5932 50.0768 12.4521 43.5743 12.4521 37.529C12.4521 28.0831 15.3224 20.5579 21.0628 14.9534C26.8008 9.34887 33.4464 6.5466 40.9996 6.5466C48.5528 6.5466 55.1984 9.34887 60.9364 14.9534C66.6768 20.5579 69.547 28.0831 69.547 37.529C69.547 43.5743 67.406 50.0768 63.1239 57.0365C58.8417 63.9937 52.3591 71.534 43.6759 79.6574C43.3191 79.9723 42.9028 80.2242 42.427 80.4131C41.9512 80.602 41.4754 80.6965 40.9996 80.6965Z" fill="#EBE8E4"/>
<path fill-rule="evenodd" clip-rule="evenodd" d="M22.667 34.4949C22.667 24.3194 30.9159 16.0706 41.0914 16.0706C51.2669 16.0706 59.5157 24.3194 59.5157 34.4949C59.5157 44.6704 51.2669 52.9193 41.0914 52.9193C30.9159 52.9193 22.667 44.6704 22.667 34.4949ZM41.6064 27.2588C40.7088 27.1048 39.7857 27.2735 39.0006 27.7349C38.2154 28.1963 37.6189 28.9207 37.3167 29.7798C37.0811 30.4495 36.3473 30.8014 35.6776 30.5659C35.0079 30.3303 34.656 29.5964 34.8915 28.9267C35.3952 27.4949 36.3894 26.2875 37.698 25.5185C39.0065 24.7494 40.545 24.4683 42.041 24.7249C43.537 24.9815 44.8939 25.7593 45.8713 26.9204C46.8486 28.0813 47.3835 29.5505 47.3816 31.068C47.3812 33.4638 45.6012 35.0844 44.2383 35.993C43.5177 36.4734 42.8062 36.8282 42.2799 37.0621C42.0149 37.1799 41.7923 37.269 41.633 37.3297C41.5532 37.3601 41.489 37.3835 41.4428 37.3999L41.3874 37.4193L41.3705 37.4251L41.3647 37.427L41.3626 37.4278C41.3622 37.4279 41.3609 37.4283 40.9545 36.2089L41.3609 37.4283C40.6874 37.6528 39.9595 37.2888 39.735 36.6153C39.5107 35.9425 39.8738 35.2153 40.546 34.9901L40.551 34.9883L40.5816 34.9776C40.6108 34.9672 40.657 34.9505 40.7178 34.9273C40.8396 34.8809 41.0187 34.8093 41.2358 34.7129C41.6736 34.5183 42.2475 34.2304 42.8123 33.8539C44.0201 33.0487 44.8107 32.0987 44.8107 31.0672L44.8107 31.0653C44.8121 30.1546 44.4911 29.2728 43.9046 28.5761C43.3181 27.8794 42.504 27.4127 41.6064 27.2588ZM41.0921 41.7789C40.3821 41.7789 39.8066 42.3544 39.8066 43.0644C39.8066 43.7743 40.3821 44.3498 41.0921 44.3498H41.1092C41.8191 44.3498 42.3946 43.7743 42.3946 43.0644C42.3946 42.3544 41.8191 41.7789 41.1092 41.7789H41.0921Z" fill="#CDC3B9"/>
<path fill-rule="evenodd" clip-rule="evenodd" d="M6.35432 9.57413C6.85662 8.86901 7.83543 8.70459 8.54056 9.2069L15.6647 14.2819C16.3698 14.7842 16.5343 15.763 16.032 16.4681C15.5297 17.1732 14.5508 17.3376 13.8457 16.8353L6.72156 11.7604C6.01644 11.2581 5.85202 10.2793 6.35432 9.57413Z" fill="#E2DDD7"/>
<path fill-rule="evenodd" clip-rule="evenodd" d="M17.0966 1.37874C17.8422 0.938765 18.8033 1.18652 19.2433 1.93213L23.0325 8.3535C23.4725 9.0991 23.2248 10.0602 22.4792 10.5002C21.7336 10.9402 20.7724 10.6924 20.3325 9.9468L16.5432 3.52543C16.1033 2.77983 16.351 1.81872 17.0966 1.37874Z" fill="#E2DDD7"/>
<path fill-rule="evenodd" clip-rule="evenodd" d="M1.00013 22.969C0.903396 23.8294 1.5224 24.6052 2.38272 24.7019L10.5831 25.624C11.4434 25.7208 12.2192 25.1018 12.316 24.2414C12.4127 23.3811 11.7937 22.6053 10.9334 22.5085L2.73304 21.5865C1.87272 21.4897 1.09687 22.1087 1.00013 22.969Z" fill="#E2DDD7"/>
</svg>
