<svg width="20" height="23" viewBox="0 0 20 23" fill="none" xmlns="http://www.w3.org/2000/svg">
<path fill-rule="evenodd" clip-rule="evenodd" d="M4.16659 1.875C3.77981 1.875 3.40888 2.02865 3.13539 2.30214C2.8619 2.57563 2.70825 2.94656 2.70825 3.33333V20.2997L9.49133 15.4546C9.79557 15.2373 10.2043 15.2373 10.5085 15.4546L17.2916 20.2997V3.33333C17.2916 2.94656 17.1379 2.57563 16.8644 2.30214C16.591 2.02865 16.22 1.875 15.8333 1.875H4.16659ZM1.89795 1.0647C2.49963 0.46302 3.31568 0.125 4.16659 0.125H15.8333C16.6842 0.125 17.5002 0.46302 18.1019 1.0647C18.7036 1.66638 19.0416 2.48243 19.0416 3.33333V22C19.0416 22.3278 18.8584 22.628 18.567 22.778C18.2755 22.928 17.9247 22.9025 17.658 22.712L9.99992 17.242L2.34184 22.712C2.07512 22.9025 1.72431 22.928 1.43287 22.778C1.14143 22.628 0.958252 22.3278 0.958252 22V3.33333C0.958252 2.48243 1.29627 1.66638 1.89795 1.0647Z" fill="#C0B4A7"/>
</svg>
