<svg width="40" height="40" viewBox="0 0 40 40" fill="none" xmlns="http://www.w3.org/2000/svg">
<rect width="40" height="40" rx="20" fill="#EBE8E4"/>
<path d="M20 20C20.55 20 21.021 19.804 21.413 19.412C21.8043 19.0207 22 18.55 22 18C22 17.45 21.8043 16.979 21.413 16.587C21.021 16.1957 20.55 16 20 16C19.45 16 18.9793 16.1957 18.588 16.587C18.196 16.979 18 17.45 18 18C18 18.55 18.196 19.0207 18.588 19.412C18.9793 19.804 19.45 20 20 20ZM20 29.625C19.8667 29.625 19.7333 29.6 19.6 29.55C19.4667 29.5 19.35 29.4333 19.25 29.35C16.8167 27.2 15 25.2043 13.8 23.363C12.6 21.521 12 19.8 12 18.2C12 15.7 12.8043 13.7083 14.413 12.225C16.021 10.7417 17.8833 10 20 10C22.1167 10 23.979 10.7417 25.587 12.225C27.1957 13.7083 28 15.7 28 18.2C28 19.8 27.4 21.521 26.2 23.363C25 25.2043 23.1833 27.2 20.75 29.35C20.65 29.4333 20.5333 29.5 20.4 29.55C20.2667 29.6 20.1333 29.625 20 29.625Z" fill="#CDC3B9"/>
</svg>
