<svg width="24" height="24" viewBox="0 0 24 24" fill="none" xmlns="http://www.w3.org/2000/svg">
<g clip-path="url(#clip0_243_1387)">
<path d="M20.8244 12.2073C20.8244 11.5955 20.7748 10.9804 20.669 10.3785H12.1799V13.8443H17.0412C16.8395 14.962 16.1913 15.9508 15.2422 16.5792V18.8279H18.1425C19.8456 17.2604 20.8244 14.9455 20.8244 12.2073Z" fill="#4484F5"/>
<path d="M12.1801 21.0006C14.6074 21.0006 16.6544 20.2036 18.1459 18.8279L15.2457 16.5792C14.4388 17.1281 13.3971 17.439 12.1834 17.439C9.83541 17.439 7.8446 15.8549 7.13029 13.7252H4.13745V16.0434C5.66529 19.0826 8.77717 21.0006 12.1801 21.0006Z" fill="#34A755"/>
<path d="M7.12684 13.7252C6.74984 12.6075 6.74984 11.3971 7.12684 10.2793V7.96112H4.13731C2.86081 10.5042 2.86081 13.5003 4.13731 16.0434L7.12684 13.7252Z" fill="#F9BC04"/>
<path d="M12.1801 6.56224C13.4632 6.5424 14.7033 7.02523 15.6326 7.9115L18.2021 5.34196C16.5751 3.81413 14.4156 2.97415 12.1801 3.00061C8.77717 3.00061 5.66528 4.91867 4.13745 7.96111L7.12698 10.2793C7.83798 8.1463 9.83211 6.56224 12.1801 6.56224Z" fill="#ED4235"/>
</g>
<defs>
<clipPath id="clip0_243_1387">
<rect width="18" height="18" fill="white" transform="translate(3 3)"/>
</clipPath>
</defs>
</svg>
