<svg width="130" height="26" viewBox="0 0 130 26" fill="none" xmlns="http://www.w3.org/2000/svg">
<g clip-path="url(#clip0_1494_10232)">
<path d="M128.453 16.0469L128.03 16.4705C127.636 16.8645 127.094 17.1995 126.404 17.4654C125.735 17.7215 124.996 17.82 124.198 17.7806C123.656 17.7511 123.134 17.5935 122.642 17.3275C122.149 17.0615 121.716 16.6971 121.371 16.2538C121.144 15.9583 120.957 15.6332 120.829 15.2786C122.238 15.1505 123.538 14.9732 124.681 14.7368C126.05 14.4511 127.163 13.998 128 13.3872C128.897 12.7272 129.389 11.8013 129.468 10.6389C129.517 9.84096 129.35 9.10216 128.976 8.44216C128.611 7.78216 128.05 7.24037 127.34 6.83649C126.641 6.42276 125.784 6.18634 124.809 6.12724C123.361 6.03858 122.06 6.30455 120.967 6.9153C119.893 7.51619 119.026 8.3535 118.406 9.39768C117.795 10.4419 117.45 11.5944 117.381 12.8454C117.293 14.2935 117.529 15.5938 118.071 16.7069C118.622 17.8299 119.42 18.7263 120.455 19.3863C121.489 20.0365 122.691 20.4108 124.04 20.4994C124.208 20.5093 124.375 20.5191 124.543 20.5191C125.429 20.5191 126.296 20.3714 127.114 20.0857C128.109 19.7311 128.966 19.2287 129.675 18.5884L130 18.2929L128.453 16.0568V16.0469ZM120.632 12.7962C120.632 12.7863 120.632 12.7666 120.632 12.7568C120.691 11.821 120.918 11.0625 121.322 10.4911C121.735 9.90992 122.238 9.48633 122.819 9.23022C123.351 8.9938 123.883 8.87559 124.424 8.87559C124.966 8.87559 124.572 8.87559 124.641 8.87559C125.272 8.91499 125.744 9.08245 126.05 9.36813C126.336 9.64395 126.464 9.96902 126.434 10.3926C126.404 10.9048 126.168 11.289 125.715 11.5944C125.173 11.9392 124.424 12.2051 123.489 12.3923C122.642 12.5598 121.676 12.6878 120.622 12.7962H120.632Z" fill="#FF8922"/>
<path d="M109.373 6.06812C108.279 6.06812 107.245 6.31438 106.299 6.81677C105.698 7.13199 105.186 7.52602 104.763 7.98901C104.526 7.34871 104.142 6.82662 103.62 6.44244L103.364 6.25528L100.793 7.69348L101.216 8.15647C101.492 8.46184 101.738 8.83617 101.935 9.27945C102.132 9.69318 102.231 10.1759 102.231 10.698V25.9666L105.275 25.6317V19.4947C105.649 19.7114 106.073 19.8985 106.555 20.0561C107.412 20.332 108.319 20.4699 109.245 20.4699C111.234 20.4699 112.811 19.8 113.934 18.48C115.037 17.1797 115.589 15.377 115.589 13.1015C115.589 10.826 115.037 9.22035 113.953 7.97916C112.85 6.71826 111.303 6.07797 109.373 6.07797V6.06812ZM112.466 13.1705C112.466 14.6382 112.141 15.7908 111.51 16.5985C110.9 17.3669 110.062 17.7511 108.949 17.7511C107.836 17.7511 107.452 17.5935 106.762 17.2881C106.132 17.0123 105.639 16.6478 105.265 16.175V14.2639C105.265 12.5203 105.639 11.1609 106.388 10.2153C107.117 9.2893 108.053 8.83617 109.264 8.83617C110.476 8.83617 111.037 9.19079 111.599 9.91975C112.18 10.6783 112.476 11.7717 112.476 13.1705H112.466Z" fill="#FF8922"/>
<path d="M98.4186 17.1303C98.2118 16.8742 98.1034 16.5393 98.1034 16.1058V7.36825L97.8768 7.22049C97.3351 6.86587 96.616 6.58019 95.7491 6.37333C94.9019 6.16646 94.0154 6.05811 93.1387 6.05811C91.6118 6.05811 90.2524 6.40288 89.09 7.09243C87.9375 7.77213 87.0312 8.7375 86.3811 9.95899C85.7408 11.1706 85.4255 12.599 85.4255 14.1948C85.4255 15.7906 85.662 16.5097 86.1249 17.4455C86.5978 18.3814 87.2676 19.13 88.1246 19.662C88.9816 20.184 89.9963 20.45 91.1291 20.45C92.2619 20.45 93.2076 20.2136 94.1336 19.7605C94.7542 19.4452 95.2763 19.0611 95.6998 18.6079C95.9067 18.9626 96.1924 19.2778 96.5569 19.5437C97.1775 19.9969 97.9064 20.2333 98.7437 20.2333H99.1377L99.7977 17.4455H99.1673C98.8422 17.4455 98.596 17.3372 98.4088 17.1303H98.4186ZM95.0595 9.10198V14.0175C95.0595 14.7267 94.9118 15.3769 94.6064 15.9384C94.3109 16.49 93.8873 16.9333 93.3455 17.2584C92.8136 17.5736 92.1831 17.7411 91.4443 17.7411C90.7055 17.7411 89.8978 17.4258 89.3658 16.7855C88.824 16.1157 88.5482 15.1996 88.5482 14.0766C88.5482 12.9536 88.7452 12.067 89.1196 11.279C89.5037 10.5106 90.0357 9.89989 90.7055 9.47631C91.3852 9.04287 92.1831 8.82616 93.0894 8.82616C93.9957 8.82616 93.9661 8.86556 94.3995 8.94437C94.6557 8.98377 94.8724 9.04288 95.0497 9.10198H95.0595Z" fill="#FF8922"/>
<path d="M83.3865 16.3423C82.9136 16.7757 82.3718 17.1205 81.7611 17.3569C80.382 17.8691 78.9635 17.7903 77.742 17.2387C77.0919 16.9333 76.5501 16.4506 76.1363 15.8202C75.7226 15.1799 75.5157 14.3426 75.5157 13.3378C75.5157 12.333 75.7325 11.5351 76.1462 10.8751C76.5698 10.2151 77.1313 9.71272 77.8011 9.3778C78.9635 8.78676 80.2736 8.66855 81.5641 9.16108C82.0763 9.34825 82.5492 9.65362 82.9727 10.0575L83.4653 10.5303L84.6769 8.0775L84.4109 7.82138C83.751 7.19094 83.0023 6.72795 82.1847 6.46198C80.5002 5.89064 78.7172 5.9399 77.0722 6.55064C76.1954 6.87572 75.3975 7.34855 74.6981 7.979C73.9987 8.60944 73.4372 9.38765 73.0137 10.2939C72.5999 11.2002 72.3931 12.2444 72.3931 13.4067C72.3931 14.5691 72.7477 16.2536 73.4372 17.3175C74.1366 18.3617 75.0528 19.1694 76.1659 19.7112C77.2692 20.2333 78.4611 20.4993 79.6925 20.4993C80.9238 20.4993 81.4459 20.3515 82.3226 20.0461C83.1993 19.7408 84.0169 19.2876 84.7557 18.6966L85.0512 18.4602L83.8889 15.899L83.3865 16.3718V16.3423Z" fill="#FF8922"/>
<path d="M68.7975 12.9636C68.2656 12.6188 67.6943 12.3036 67.0835 12.0475C66.5122 11.8012 65.9605 11.555 65.4581 11.3284C64.9853 11.1018 64.5913 10.8654 64.2958 10.6192C64.079 10.432 63.9805 10.2251 63.9805 9.97885C63.9805 9.62423 64.1086 9.37796 64.3943 9.1908C65.005 8.77706 66.1378 8.70811 67.3987 9.08244C67.9602 9.24005 68.4922 9.44691 68.9847 9.71288L69.5068 9.99855L70.3737 7.33886L69.9993 7.14184C69.4477 6.85617 68.8074 6.60005 68.0981 6.39319C67.379 6.17647 66.5811 6.06812 65.7143 6.06812C64.3155 6.06812 63.1728 6.42274 62.3256 7.11229C61.439 7.82154 60.9859 8.80662 60.9662 10.0183C60.9662 10.7866 61.1435 11.4565 61.5178 11.9983C61.8725 12.5105 62.3453 12.9538 62.9167 13.3182C63.4486 13.6433 64.0199 13.9388 64.6208 14.2048C65.202 14.4511 65.7438 14.6974 66.256 14.9338C66.719 15.1505 67.1032 15.3968 67.3987 15.6824C67.6253 15.8893 67.7337 16.1257 67.7337 16.4311C67.7337 17.0418 67.4578 17.2684 67.2411 17.3866C66.4531 17.8397 65.1922 17.8397 63.9214 17.4359C63.3107 17.2388 62.7787 16.9729 62.3453 16.6379L61.8035 16.2242L60.8086 19.0317L61.1731 19.2385C61.6656 19.5144 62.3059 19.7803 63.1038 20.0463C63.9214 20.3221 64.8474 20.46 65.8719 20.46C66.8963 20.46 68.4823 20.0758 69.3393 19.3075C70.2259 18.5194 70.6889 17.495 70.7184 16.2538C70.7381 15.4854 70.5608 14.8156 70.1766 14.2639C69.822 13.7517 69.3492 13.3084 68.7877 12.9538L68.7975 12.9636Z" fill="#FF8922"/>
<path d="M53.6864 15.7118L50.544 6.34375H47.7563L44.4366 15.7512L41.2844 6.34375H38.0139L42.9393 20.184H45.6679L49.0566 10.7963L52.2384 20.184H54.9473L59.9121 6.34375H56.7204L53.6864 15.7118Z" fill="#FF8922"/>
<path d="M35.955 16.4703C35.561 16.8644 35.0192 17.1993 34.3395 17.4653C33.6598 17.7214 32.921 17.8297 32.133 17.7706C31.5912 17.7411 31.0691 17.5835 30.5765 17.3175C30.084 17.0515 29.6506 16.6871 29.3058 16.2438C29.0792 15.9483 28.8921 15.6232 28.764 15.2686C30.1727 15.1405 31.473 14.9632 32.6156 14.7268C33.9849 14.4411 35.098 13.988 35.9353 13.3772C36.8317 12.7172 37.3243 11.7912 37.4031 10.6289C37.4523 9.83095 37.2849 9.09215 36.9106 8.43215C36.5461 7.77215 35.9846 7.23036 35.2753 6.82648C34.5759 6.41275 33.7189 6.17633 32.7437 6.11723C31.2858 6.02857 29.9953 6.29454 28.9019 6.90529C27.8282 7.50618 26.9613 8.33364 26.3407 9.38767C25.73 10.4318 25.3852 11.5844 25.3163 12.8354C25.2276 14.2835 25.464 15.5838 26.0157 16.6969C26.5673 17.8199 27.3652 18.7262 28.3995 19.3763C29.4339 20.0265 30.6356 20.4008 31.9852 20.4894C32.1527 20.4993 32.3201 20.5091 32.4876 20.5091C33.3741 20.5091 34.2312 20.3614 35.0586 20.0757C36.0535 19.7211 36.9106 19.2187 37.6198 18.5784L37.9449 18.2829L36.3983 16.0468L35.9747 16.4703H35.955ZM28.5571 12.796C28.5571 12.7862 28.5571 12.7665 28.5571 12.7566C28.6162 11.8208 28.8428 11.0623 29.2467 10.491C29.6604 9.90976 30.1628 9.48618 30.744 9.23006C31.2759 8.99364 31.8079 8.87543 32.3497 8.87543C32.8915 8.87543 32.4974 8.87543 32.5664 8.87543C33.1968 8.91483 33.6697 9.0823 33.975 9.36797C34.2607 9.64379 34.3888 9.96886 34.3592 10.3924C34.3297 10.9047 34.0932 11.2889 33.6401 11.5942C33.1082 11.939 32.3595 12.205 31.4139 12.3921C30.5667 12.5596 29.6013 12.6877 28.5473 12.796H28.5571Z" fill="#FF8922"/>
<path d="M23.4546 6.15669C23.1493 6.09758 22.7355 6.07788 22.1839 6.07788C21.2875 6.07788 20.46 6.3537 19.7212 6.88564C19.337 7.17131 18.9922 7.48653 18.7066 7.84116C18.677 7.78206 18.6475 7.7131 18.6179 7.654C18.4308 7.28952 18.214 6.92504 17.9776 6.57042L17.7708 6.25519L14.7466 7.21071L15.0717 7.7525C15.3573 8.22534 15.6233 8.72773 15.8597 9.23996C16.0764 9.7128 16.1946 10.2841 16.1946 10.9343V20.1841H19.2385V12.5794C19.2385 11.2495 19.5242 10.2841 20.0955 9.7128C20.6767 9.12175 21.3466 8.83608 22.1248 8.83608C22.903 8.83608 23.0507 8.89519 23.2281 8.94444C23.4842 9.0134 23.6615 9.06265 23.7698 9.10205L24.3806 9.33847L24.6564 6.46206L24.2624 6.34385C24.026 6.2749 23.7501 6.20594 23.4645 6.15669H23.4546Z" fill="#FF8922"/>
<path d="M10.2546 6.92506C8.63908 5.92029 6.67879 5.84148 4.72835 6.74775C4.15701 7.01372 3.59551 7.37819 3.07343 7.84118V0L0 0.551641V19.1597L0.354626 19.268C0.41373 19.2877 0.689551 19.3862 1.18209 19.5734C1.73373 19.7704 2.46268 19.9674 3.3394 20.1644C4.23581 20.3516 5.22088 20.4501 6.25521 20.4501C7.28954 20.4501 8.90506 20.1152 9.92953 19.4552C10.954 18.7952 11.7519 17.8791 12.3036 16.7364C12.8453 15.6035 13.1113 14.3033 13.1113 12.8552C13.1113 11.4071 12.8453 10.2349 12.3331 9.24983C11.8209 8.23521 11.1116 7.44715 10.2448 6.91521L10.2546 6.92506ZM9.98863 12.8059C9.98863 13.7024 9.85072 14.5495 9.5749 15.3179C9.31878 16.0567 8.90506 16.6576 8.36327 17.1009C7.83133 17.5343 7.15163 17.7412 6.28476 17.7412C5.4179 17.7412 5.08297 17.7018 4.55103 17.6328C4.0191 17.554 3.57581 17.4752 3.24089 17.3865L3.04387 17.3373V11.2692C3.68417 10.491 4.37372 9.89013 5.08297 9.48625C6.71819 8.57013 8.14655 8.64894 9.14147 9.79162C9.70296 10.4221 9.97878 11.4268 9.97878 12.7961L9.98863 12.8059Z" fill="#FF8922"/>
</g>
<defs>
<clipPath id="clip0_1494_10232">
<rect width="130" height="25.9665" fill="white"/>
</clipPath>
</defs>
</svg>
