<svg width="160" height="118" viewBox="0 0 160 118" fill="none" xmlns="http://www.w3.org/2000/svg">
<g clip-path="url(#clip0_1261_17072)">
<path d="M158.3 109.615L157.953 109.963C157.441 110.477 156.748 110.908 155.873 111.239C155.015 111.57 154.074 111.703 153.067 111.637C152.373 111.587 151.696 111.405 151.069 111.057C150.425 110.709 149.88 110.245 149.435 109.682C149.088 109.218 148.824 108.721 148.659 108.158C150.491 108.009 152.159 107.76 153.644 107.462C155.295 107.114 156.649 106.567 157.656 105.822C158.712 105.043 159.29 103.95 159.373 102.575C159.422 101.631 159.224 100.753 158.778 99.9739C158.349 99.1953 157.689 98.5492 156.83 98.0688C155.989 97.5718 154.981 97.2902 153.809 97.2239C152.059 97.1245 150.491 97.4393 149.187 98.1682C147.883 98.8971 146.859 99.8911 146.1 101.167C145.374 102.426 144.944 103.834 144.862 105.341C144.746 107.097 145.043 108.671 145.704 110.013C146.364 111.371 147.338 112.448 148.576 113.243C149.814 114.039 151.267 114.486 152.901 114.585C153.1 114.585 153.314 114.602 153.512 114.602C154.585 114.602 155.625 114.42 156.616 114.088C157.804 113.674 158.844 113.061 159.703 112.283L159.967 112.034L158.316 109.615H158.3ZM148.461 105.49C148.461 105.391 148.461 105.292 148.461 105.192C148.527 104 148.84 103.022 149.352 102.277C149.88 101.531 150.541 100.984 151.284 100.653C151.96 100.355 152.654 100.189 153.347 100.189C154.041 100.189 153.529 100.189 153.628 100.189C154.453 100.239 155.081 100.471 155.493 100.852C155.889 101.233 156.071 101.697 156.038 102.277C155.989 102.972 155.675 103.503 155.048 103.917C154.371 104.364 153.413 104.695 152.225 104.927C151.119 105.143 149.847 105.325 148.444 105.441L148.461 105.49Z" fill="#FF8922"/>
<path d="M134.792 97.1411C133.471 97.1411 132.233 97.4393 131.094 98.0357C130.268 98.4664 129.575 99.0297 129.03 99.7254C128.766 98.8143 128.287 98.0854 127.577 97.5718L127.363 97.4227L124.54 99.0131L124.886 99.3941C125.25 99.7751 125.547 100.272 125.811 100.835C126.059 101.382 126.191 101.995 126.191 102.674V121.328L129.542 120.963V113.177C130.07 113.525 130.681 113.823 131.391 114.055C132.431 114.387 133.52 114.552 134.643 114.552C137.037 114.552 138.919 113.74 140.256 112.167C141.577 110.593 142.253 108.406 142.253 105.64C142.253 102.873 141.593 100.935 140.289 99.4438C138.968 97.9363 137.119 97.1742 134.792 97.1742V97.1411ZM137.581 110.079C136.789 111.09 135.7 111.587 134.263 111.587C132.827 111.587 132.365 111.388 131.473 111.007C130.648 110.643 129.988 110.146 129.509 109.516V107.081C129.509 104.878 129.988 103.155 130.929 101.945C131.87 100.753 133.075 100.173 134.643 100.173C136.211 100.173 136.954 100.637 137.681 101.597C138.423 102.575 138.803 103.966 138.803 105.756C138.803 107.545 138.39 109.085 137.581 110.112V110.079Z" fill="#FF8922"/>
<path d="M121.123 110.759C120.825 110.411 120.693 109.947 120.693 109.367V98.6818L120.512 98.5659C119.851 98.1352 118.993 97.8038 117.953 97.5553C116.913 97.3069 115.856 97.1743 114.783 97.1743C112.934 97.1743 111.3 97.5885 109.897 98.4168C108.51 99.2285 107.421 100.405 106.645 101.879C105.869 103.354 105.489 105.076 105.489 107.031C105.489 108.986 105.77 109.831 106.331 110.957C106.892 112.084 107.701 112.978 108.725 113.625C109.748 114.254 110.97 114.569 112.324 114.569C113.677 114.569 114.816 114.287 115.939 113.741C116.781 113.31 117.474 112.78 118.002 112.134C118.25 112.664 118.63 113.111 119.142 113.492C119.868 114.022 120.743 114.304 121.717 114.304H122.03L122.757 111.272H122.245C121.783 111.272 121.436 111.123 121.156 110.808L121.123 110.759ZM114.734 100.156C115.295 100.156 115.84 100.206 116.385 100.305C116.781 100.372 117.094 100.454 117.359 100.554V106.783C117.359 107.694 117.16 108.539 116.781 109.251C116.401 109.963 115.84 110.543 115.146 110.974C114.47 111.388 113.644 111.603 112.703 111.603C111.762 111.603 110.673 111.189 109.979 110.344C109.286 109.466 108.923 108.307 108.923 106.866C108.923 105.424 109.17 104.314 109.649 103.32C110.144 102.326 110.821 101.548 111.68 101.001C112.538 100.454 113.578 100.173 114.734 100.173V100.156Z" fill="#FF8922"/>
<path d="M102.897 109.798C102.303 110.361 101.593 110.792 100.834 111.09C99.0674 111.752 97.2679 111.653 95.7161 110.941C94.8742 110.543 94.1809 109.93 93.6526 109.102C93.1243 108.274 92.8602 107.197 92.8602 105.921C92.8602 104.646 93.1408 103.618 93.6691 102.757C94.2139 101.912 94.9237 101.249 95.7987 100.819C97.2844 100.057 98.9683 99.9076 100.603 100.537C101.263 100.786 101.874 101.167 102.402 101.68L102.798 102.061L104.102 99.4106L103.888 99.1953C103.095 98.4332 102.204 97.8866 101.213 97.5552C99.1829 96.876 97.0368 96.9257 95.0393 97.6712C93.9828 98.0522 93.0253 98.632 92.1833 99.3941C91.3414 100.156 90.6646 101.084 90.1528 102.194C89.6575 103.287 89.4099 104.546 89.4099 105.954C89.4099 107.362 89.8391 109.4 90.6646 110.676C91.5065 111.935 92.6126 112.912 93.9497 113.558C95.2869 114.188 96.7232 114.519 98.2089 114.519C99.6947 114.519 100.322 114.337 101.379 113.972C102.435 113.608 103.426 113.061 104.317 112.332L104.565 112.133L103.327 109.367L102.914 109.765L102.897 109.798Z" fill="#FF8922"/>
<path d="M84.6553 105.64C84.0115 105.209 83.3016 104.844 82.5752 104.513C81.8654 104.198 81.1885 103.9 80.5612 103.618C79.9669 103.337 79.4551 103.022 79.0754 102.707C78.7618 102.442 78.6132 102.128 78.6132 101.763C78.6132 101.399 78.7948 100.885 79.2075 100.62C79.9999 100.073 81.4692 99.9905 83.087 100.454C83.7969 100.653 84.4737 100.918 85.0845 101.25L85.5137 101.481L86.4547 98.5989L86.1576 98.4333C85.4972 98.0854 84.7048 97.7706 83.8464 97.5221C82.9879 97.2571 82.0139 97.1411 80.9739 97.1411C79.3066 97.1411 77.9364 97.5553 76.9293 98.4001C75.8893 99.245 75.3445 100.405 75.328 101.846C75.328 102.757 75.5261 103.536 75.9719 104.182C76.3846 104.795 76.9458 105.325 77.6392 105.756C78.283 106.153 78.9929 106.518 79.7193 106.832C80.4291 107.147 81.106 107.445 81.7498 107.743C82.3441 108.025 82.8394 108.34 83.2026 108.704C83.5327 109.003 83.6813 109.35 83.6813 109.781C83.6813 110.427 83.4502 110.874 82.9714 111.14C81.9479 111.719 80.3466 111.736 78.7123 111.222C77.9364 110.974 77.2595 110.626 76.6982 110.195L76.2525 109.864L75.1794 112.896L75.4766 113.061C76.0709 113.393 76.8633 113.724 77.8208 114.055C78.8113 114.387 79.9339 114.552 81.1555 114.552C82.3771 114.552 84.2756 114.088 85.2991 113.177C86.3557 112.249 86.9004 111.024 86.9335 109.549C86.95 108.638 86.7519 107.859 86.3061 107.213C85.8934 106.6 85.3321 106.07 84.6553 105.64Z" fill="#FF8922"/>
<path d="M66.2318 109.202C66.1988 109.301 66.1658 109.4 66.1163 109.5C66.0833 109.4 66.0502 109.317 66.0172 109.218L62.0882 97.4727H58.9516L54.775 109.334C54.742 109.4 54.7254 109.45 54.6924 109.516C54.6594 109.417 54.6264 109.334 54.5934 109.251L50.6644 97.4727H47.082L53.0086 114.188H56.0791L60.4044 102.144L64.4654 114.188H67.5195L73.4956 97.4727H70.0123L66.2153 109.185L66.2318 109.202Z" fill="#FF8922"/>
<path d="M44.4243 109.963C43.9125 110.477 43.2192 110.908 42.3607 111.239C41.5023 111.57 40.5448 111.703 39.5543 111.637C38.861 111.587 38.1841 111.405 37.5568 111.057C36.913 110.709 36.3682 110.245 35.9224 109.682C35.5758 109.218 35.3116 108.721 35.1465 108.158C36.979 108.009 38.6463 107.76 40.1321 107.462C41.7829 107.114 43.1366 106.567 44.1437 105.822C45.2002 105.043 45.778 103.95 45.8605 102.575C45.9101 101.631 45.712 100.753 45.2662 99.9739C44.837 99.1953 44.1767 98.5492 43.3182 98.0688C42.4763 97.5718 41.4693 97.2902 40.2972 97.2239C38.5473 97.1245 36.979 97.4393 35.6748 98.1682C34.3707 98.8971 33.3471 99.8911 32.5877 101.167C31.8614 102.426 31.4321 103.834 31.3496 105.341C31.234 107.097 31.5312 108.671 32.1915 110.013C32.8519 111.371 33.8259 112.448 35.064 113.243C36.3021 114.039 37.7549 114.486 39.3892 114.585C39.5873 114.585 39.8019 114.602 40 114.602C41.0731 114.602 42.1131 114.42 43.1036 114.088C44.2922 113.674 45.3323 113.061 46.1907 112.283L46.4548 112.034L44.7875 109.615L44.4408 109.963H44.4243ZM34.9319 105.474C34.9319 105.375 34.9319 105.275 34.9319 105.176C34.998 103.983 35.3116 103.006 35.8234 102.26C36.3517 101.515 36.9955 100.968 37.7549 100.637C38.4317 100.338 39.1251 100.173 39.8184 100.173C40.5118 100.173 40 100.173 40.0991 100.173C40.9245 100.222 41.5518 100.454 41.9645 100.835C42.3607 101.216 42.5423 101.68 42.5093 102.26C42.4598 102.956 42.1461 103.486 41.5188 103.9C40.842 104.347 39.8845 104.679 38.6959 104.911C37.5898 105.126 36.3186 105.308 34.9154 105.424L34.9319 105.474Z" fill="#FF8922"/>
<path d="M28.8239 97.2405C28.4772 97.1742 27.9654 97.1411 27.3051 97.1411C26.2485 97.1411 25.258 97.4724 24.3996 98.102C23.8383 98.5161 23.3596 98.98 22.9799 99.5266C22.9138 99.3444 22.8313 99.1622 22.7322 98.98C22.5011 98.5327 22.237 98.0854 21.9563 97.6547L21.7913 97.3896L18.4565 98.4498L18.7207 98.8971C19.0674 99.4769 19.3975 100.106 19.6947 100.769C19.9753 101.382 20.1239 102.111 20.1239 102.956V114.188H23.4751V104.977C23.4751 103.287 23.8548 102.045 24.5977 101.283C25.3571 100.504 26.2155 100.14 27.239 100.14C28.2626 100.14 28.3286 100.189 28.6423 100.272C28.9724 100.355 29.2036 100.421 29.3191 100.471L29.8144 100.67L30.1115 97.5553L29.7979 97.4559C29.5007 97.373 29.1705 97.2902 28.8239 97.2239V97.2405Z" fill="#FF8922"/>
<path d="M12.4639 98.1684C10.5324 96.9591 8.18821 96.8597 5.84401 97.953C5.03509 98.3341 4.24269 98.8808 3.49981 99.5931V89.6865L0.13208 90.2995V112.995L0.429232 113.078C0.495266 113.095 0.841944 113.227 1.45276 113.459C2.1131 113.708 3.00455 113.939 4.0776 114.188C5.16716 114.42 6.37228 114.536 7.64343 114.536C8.91458 114.536 10.8461 114.138 12.0677 113.343C13.3058 112.548 14.2633 111.455 14.9237 110.063C15.5675 108.688 15.8977 107.098 15.8977 105.342C15.8977 103.586 15.584 102.177 14.9567 100.968C14.3459 99.7422 13.5039 98.7979 12.4639 98.1518V98.1684ZM10.4003 110.742C9.72349 111.305 8.81553 111.587 7.70946 111.587C6.6034 111.587 6.20719 111.537 5.54685 111.454C4.88652 111.355 4.32523 111.256 3.91252 111.156L3.51631 111.057V103.32C4.34174 102.31 5.21669 101.531 6.14116 101.001C7.08214 100.471 7.9736 100.206 8.81553 100.206C9.65746 100.206 10.681 100.604 11.3908 101.432C12.1172 102.244 12.4804 103.552 12.4804 105.275C12.4804 106.998 12.2988 107.479 11.9686 108.456C11.6385 109.4 11.1102 110.179 10.4169 110.759L10.4003 110.742Z" fill="#FF8922"/>
<path fill-rule="evenodd" clip-rule="evenodd" d="M125.712 36.9093C125.712 57.2194 105.423 73.6862 80.3796 73.6862C55.3363 73.6862 35.0474 57.2194 35.0474 36.9093C35.0474 16.5991 55.3528 0.132324 80.3796 0.132324C105.406 0.132324 117.854 10.95 123.632 25.8596C123.896 26.5388 123.632 27.3174 123.021 27.715C113.611 33.8445 100.668 37.9695 87.8249 40.0237C79.4716 41.349 71.2669 41.7797 64.2838 41.3325C57.2347 40.8852 51.6714 39.5433 48.4027 37.5222C47.9405 37.2406 47.3957 37.1909 46.9169 37.3566C46.2071 37.5554 45.6788 38.1849 45.6458 38.9469C45.4807 42.0945 46.108 45.2421 47.4782 48.108C48.8319 50.974 50.8955 53.4755 53.4543 55.4137C54.2302 55.9935 55.3198 55.8444 55.8975 55.0658C56.4753 54.2872 56.3268 53.1938 55.5509 52.614C53.4378 51.0237 51.7374 48.9529 50.6314 46.6005C49.905 45.0764 49.4427 43.4695 49.2281 41.8294C53.1241 43.4695 58.2913 44.4303 64.0692 44.8114C71.3495 45.2752 79.8018 44.8279 88.3697 43.4695C100.569 41.5312 113.215 37.6879 123.021 31.8235C123.995 31.2436 125.283 31.7738 125.431 32.9168C125.613 34.2256 125.695 35.5674 125.695 36.9093H125.712ZM98.3573 21.6518C98.3573 23.0931 97.1852 24.2693 95.749 24.2693C94.3127 24.2693 93.1406 23.0931 93.1406 21.6518C93.1406 20.2106 94.3127 19.0344 95.749 19.0344C97.1852 19.0344 98.3573 20.2106 98.3573 21.6518ZM107.387 24.2858C108.824 24.2858 109.996 23.1096 109.996 21.6684C109.996 20.2271 108.824 19.0509 107.387 19.0509C105.951 19.0509 104.779 20.2271 104.779 21.6684C104.779 23.1096 105.951 24.2858 107.387 24.2858Z" fill="#FF8922"/>
</g>
<defs>
<clipPath id="clip0_1261_17072">
<rect width="160" height="117.802" fill="white"/>
</clipPath>
</defs>
</svg>
