<svg width="40" height="40" viewBox="0 0 40 40" fill="none" xmlns="http://www.w3.org/2000/svg">
<path d="M0 20C0 8.95431 8.95431 0 20 0C31.0457 0 40 8.95431 40 20C40 31.0457 31.0457 40 20 40C8.95431 40 0 31.0457 0 20Z" fill="#6A635C"/>
<g clip-path="url(#clip0_407_13540)">
<path fill-rule="evenodd" clip-rule="evenodd" d="M24.83 13H28C29.1 13 30 13.9 30 15V27C30 28.1 29.1 29 28 29H12C10.9 29 10 28.1 10 27V15C10 13.9 10.9 13 12 13H15.17L16.4 11.65C16.78 11.24 17.32 11 17.88 11H22.12C22.68 11 23.22 11.24 23.59 11.65L24.83 13ZM15 21C15 23.76 17.24 26 20 26C22.76 26 25 23.76 25 21C25 18.24 22.76 16 20 16C17.24 16 15 18.24 15 21ZM23 21C23 22.6569 21.6569 24 20 24C18.3431 24 17 22.6569 17 21C17 19.3431 18.3431 18 20 18C21.6569 18 23 19.3431 23 21Z" fill="white"/>
</g>
<defs>
<clipPath id="clip0_407_13540">
<rect width="24" height="24" fill="white" transform="translate(8 8)"/>
</clipPath>
</defs>
</svg>
