<svg width="16" height="17" viewBox="0 0 16 17" fill="none" xmlns="http://www.w3.org/2000/svg">
<path fill-rule="evenodd" clip-rule="evenodd" d="M3.03892 3.16663C2.09988 3.16663 1.3335 3.91987 1.3335 4.84282V12.1571C1.3335 13.0801 2.09988 13.8333 3.03892 13.8333H12.9614C13.9005 13.8333 14.6668 13.0801 14.6668 12.1571V4.84282C14.6668 3.91987 13.9005 3.16663 12.9614 3.16663H3.03892ZM3.48299 5.26696C3.25103 5.09411 2.92869 5.15016 2.76301 5.39215C2.59733 5.63414 2.65105 5.97044 2.883 6.14328L7.70017 9.733C7.87963 9.86672 8.1207 9.86672 8.30015 9.733L13.1173 6.14328C13.3493 5.97044 13.403 5.63414 13.2373 5.39215C13.0716 5.15016 12.7493 5.09411 12.5173 5.26696L8.00016 8.63312L3.48299 5.26696Z" fill="#767676"/>
</svg>
