<svg width="40" height="40" viewBox="0 0 40 40" fill="none" xmlns="http://www.w3.org/2000/svg">
<rect width="40" height="40" rx="20" fill="#FFDABA"/>
<path d="M12.431 23.2025C13.3472 22.2862 14.5899 21.7715 15.8857 21.7715H24.1143C25.4101 21.7715 26.6528 22.2862 27.569 23.2025C28.4853 24.1187 29 25.3614 29 26.6572V28.7143C29 29.1404 28.6546 29.4858 28.2286 29.4858H11.7714C11.3454 29.4858 11 29.1404 11 28.7143V26.6572C11 25.3614 11.5147 24.1187 12.431 23.2025Z" fill="#FFB06B"/>
<path d="M15.1143 14.8857C15.1143 12.1874 17.3017 10 20 10C22.6983 10 24.8857 12.1874 24.8857 14.8857C24.8857 17.584 22.6983 19.7714 20 19.7714C17.3017 19.7714 15.1143 17.584 15.1143 14.8857Z" fill="#FFB06B"/>
</svg>
