<svg width="12" height="14" viewBox="0 0 12 14" fill="none" xmlns="http://www.w3.org/2000/svg">
<path d="M5.99984 6.99992C6.3665 6.99992 6.6805 6.86925 6.94184 6.60792C7.20273 6.34703 7.33317 6.03325 7.33317 5.66659C7.33317 5.29992 7.20273 4.98592 6.94184 4.72459C6.6805 4.4637 6.3665 4.33325 5.99984 4.33325C5.63317 4.33325 5.31939 4.4637 5.0585 4.72459C4.79717 4.98592 4.6665 5.29992 4.6665 5.66659C4.6665 6.03325 4.79717 6.34703 5.0585 6.60792C5.31939 6.86925 5.63317 6.99992 5.99984 6.99992ZM5.99984 13.4166C5.91095 13.4166 5.82206 13.3999 5.73317 13.3666C5.64428 13.3333 5.5665 13.2888 5.49984 13.2333C3.87761 11.7999 2.6665 10.4695 1.8665 9.24192C1.0665 8.01392 0.666504 6.86659 0.666504 5.79992C0.666504 4.13325 1.20273 2.80547 2.27517 1.81659C3.34717 0.827696 4.58873 0.333252 5.99984 0.333252C7.41095 0.333252 8.6525 0.827696 9.7245 1.81659C10.7969 2.80547 11.3332 4.13325 11.3332 5.79992C11.3332 6.86659 10.9332 8.01392 10.1332 9.24192C9.33317 10.4695 8.12206 11.7999 6.49984 13.2333C6.43317 13.2888 6.35539 13.3333 6.2665 13.3666C6.17761 13.3999 6.08873 13.4166 5.99984 13.4166Z" fill="white"/>
</svg>
