<svg width="100" height="100" viewBox="0 0 100 100" fill="none" xmlns="http://www.w3.org/2000/svg">
<path d="M95 89.2739C95 91.4831 93.2091 93.2739 91 93.2739L9.00006 93.2739C6.79092 93.2739 5.00006 91.4831 5.00006 89.2739L5.00007 26.4466L95 26.4466L95 89.2739Z" fill="#EBE8E4"/>
<path d="M5 10.7261C5 8.51694 6.79086 6.72607 9 6.72607H90.9999C93.2091 6.72607 94.9999 8.51693 94.9999 10.7261V21.9226H5V10.7261Z" fill="#EBE8E4"/>
<circle cx="65.2355" cy="14.3244" r="3.14375" fill="#D5CDC4"/>
<circle cx="75.0446" cy="14.3244" r="3.14375" fill="#D5CDC4"/>
<circle cx="84.8552" cy="14.3244" r="3.14375" fill="#D5CDC4"/>
<path fill-rule="evenodd" clip-rule="evenodd" d="M34 55.8401C34 47.0035 41.1634 39.8401 50 39.8401C58.8366 39.8401 66 47.0035 66 55.8401C66 64.6766 58.8366 71.8401 50 71.8401C41.1634 71.8401 34 64.6766 34 55.8401ZM49.9996 48.7703C50.6161 48.7703 51.1159 49.27 51.1159 49.8865V55.84C51.1159 56.4565 50.6161 56.9563 49.9996 56.9563C49.3831 56.9563 48.8833 56.4565 48.8833 55.84V49.8865C48.8833 49.27 49.3831 48.7703 49.9996 48.7703ZM49.9996 60.6773C49.3831 60.6773 48.8833 61.1771 48.8833 61.7936C48.8833 62.4101 49.3831 62.9099 49.9996 62.9099H50.0145C50.631 62.9099 51.1308 62.4101 51.1308 61.7936C51.1308 61.1771 50.631 60.6773 50.0145 60.6773H49.9996Z" fill="#FF4D4D"/>
<path fill-rule="evenodd" clip-rule="evenodd" d="M77.9897 48.4954C78.5106 47.9745 79.355 47.9745 79.8759 48.4954L86.2775 54.897C86.7984 55.4179 86.7984 56.2623 86.2775 56.7831L79.8759 63.1848C79.355 63.7057 78.5106 63.7057 77.9897 63.1848C77.4689 62.664 77.4689 61.8195 77.9897 61.2987L83.4484 55.8401L77.9897 50.3815C77.4689 49.8606 77.4689 49.0162 77.9897 48.4954Z" fill="#E2DDD7"/>
<path fill-rule="evenodd" clip-rule="evenodd" d="M22.009 48.4954C22.5298 49.0162 22.5298 49.8606 22.009 50.3815L16.5504 55.8401L22.009 61.2987C22.5298 61.8195 22.5298 62.664 22.009 63.1848C21.4881 63.7057 20.6437 63.7057 20.1229 63.1848L13.7212 56.7831C13.2004 56.2623 13.2004 55.4179 13.7212 54.897L20.1229 48.4954C20.6437 47.9745 21.4881 47.9745 22.009 48.4954Z" fill="#E2DDD7"/>
</svg>
