<svg width="24" height="24" viewBox="0 0 24 24" fill="none" xmlns="http://www.w3.org/2000/svg">
<path fill-rule="evenodd" clip-rule="evenodd" d="M17.3846 2.76923C17.3846 2.3444 17.0402 2 16.6154 2C16.1905 2 15.8461 2.3444 15.8461 2.76923V3.8462L2.76923 3.8462C2.3444 3.8462 2 4.1906 2 4.61543C2 5.04027 2.3444 5.38466 2.76923 5.38466L15.8461 5.38466V6.46153C15.8461 6.88637 16.1905 7.23076 16.6154 7.23076C17.0402 7.23076 17.3846 6.88637 17.3846 6.46153V5.38466L21.2307 5.38466C21.6556 5.38466 22 5.04026 22 4.61543C22 4.1906 21.6556 3.8462 21.2307 3.8462L17.3846 3.8462V2.76923ZM22 12.0001C22 11.5753 21.6556 11.2309 21.2307 11.2309L8.15384 11.2309V10.1539C8.15384 9.72908 7.80944 9.38468 7.38461 9.38468C6.95977 9.38468 6.61538 9.72908 6.61538 10.1539V11.2309H2.76923C2.3444 11.2309 2 11.5753 2 12.0001C2 12.4249 2.3444 12.7693 2.76923 12.7693H6.61538V13.8462C6.61538 14.271 6.95977 14.6154 7.38461 14.6154C7.80944 14.6154 8.15384 14.271 8.15384 13.8462V12.7693L21.2307 12.7693C21.6556 12.7693 22 12.4249 22 12.0001ZM2 19.3847C2 18.9598 2.3444 18.6154 2.76923 18.6154L15.8461 18.6154V17.5385C15.8461 17.1136 16.1905 16.7692 16.6154 16.7692C17.0402 16.7692 17.3846 17.1136 17.3846 17.5385V18.6154H21.2307C21.6556 18.6154 22 18.9598 22 19.3847C22 19.8095 21.6556 20.1539 21.2307 20.1539H17.3846V21.2308C17.3846 21.6556 17.0402 22 16.6154 22C16.1905 22 15.8461 21.6556 15.8461 21.2308V20.1539L2.76923 20.1539C2.3444 20.1539 2 19.8095 2 19.3847Z" fill="#121212"/>
</svg>
