<svg width="24" height="25" viewBox="0 0 24 25" fill="none" xmlns="http://www.w3.org/2000/svg">
<path fill-rule="evenodd" clip-rule="evenodd" d="M10.4119 12.0882C10.4119 11.2111 11.1229 10.5 12.0001 10.5C12.8773 10.5 13.5883 11.2111 13.5883 12.0882C13.5883 12.9654 12.8773 13.6765 12.0001 13.6765C11.1229 13.6765 10.4119 12.9654 10.4119 12.0882Z" fill="black"/>
<path fill-rule="evenodd" clip-rule="evenodd" d="M17.8235 12.0882C17.8235 11.2111 18.5346 10.5 19.4117 10.5C20.2889 10.5 21 11.2111 21 12.0882C21 12.9654 20.2889 13.6765 19.4117 13.6765C18.5346 13.6765 17.8235 12.9654 17.8235 12.0882Z" fill="black"/>
<path fill-rule="evenodd" clip-rule="evenodd" d="M3 12.0882C3 11.2111 3.71108 10.5 4.58824 10.5C5.46539 10.5 6.17647 11.2111 6.17647 12.0882C6.17647 12.9654 5.46539 13.6765 4.58824 13.6765C3.71108 13.6765 3 12.9654 3 12.0882Z" fill="black"/>
</svg>
