<svg width="24" height="24" viewBox="0 0 24 24" fill="none" xmlns="http://www.w3.org/2000/svg">
<path fill-rule="evenodd" clip-rule="evenodd" d="M2.7 5C3.0866 5 3.4 5.26863 3.4 5.6V9.8H8.3C8.6866 9.8 9 10.0686 9 10.4C9 10.7314 8.6866 11 8.3 11H2.7C2.3134 11 2 10.7314 2 10.4V5.6C2 5.26863 2.3134 5 2.7 5Z" fill="#121212"/>
<path fill-rule="evenodd" clip-rule="evenodd" d="M15 13.6C15 13.2686 15.3134 13 15.7 13H21.3C21.6866 13 22 13.2686 22 13.6V18.4C22 18.7314 21.6866 19 21.3 19C20.9134 19 20.6 18.7314 20.6 18.4V14.2H15.7C15.3134 14.2 15 13.9314 15 13.6Z" fill="#121212"/>
<path fill-rule="evenodd" clip-rule="evenodd" d="M9.69908 4.31511C11.0456 3.93952 12.4688 3.89898 13.8359 4.19729C15.2031 4.49559 16.4696 5.123 17.5173 6.02098C18.5649 6.91896 19.3597 8.05825 19.8273 9.33252C19.9449 9.653 19.7708 10.0047 19.4385 10.1181C19.1061 10.2315 18.7414 10.0637 18.6238 9.7432C18.2281 8.66497 17.5557 7.70096 16.6692 6.94113C15.7827 6.1813 14.711 5.65041 13.5542 5.398C12.3974 5.14559 11.1931 5.17989 10.0538 5.4977C8.91444 5.8155 7.87715 6.40645 7.03869 7.21541C7.03398 7.21996 7.02919 7.22444 7.02433 7.22884L3.07539 10.8071C2.81849 11.0399 2.41454 11.0278 2.17314 10.7801C1.93174 10.5323 1.94431 10.1428 2.20121 9.91L6.143 6.33817C7.13263 5.3857 8.35584 4.68978 9.69908 4.31511ZM21.8269 13.2199C22.0683 13.4677 22.0557 13.8572 21.7988 14.09L17.857 17.6618C16.8674 18.6143 15.6442 19.3102 14.3009 19.6849C12.9544 20.0605 11.5312 20.101 10.1641 19.8027C8.79692 19.5044 7.53042 18.877 6.48274 17.979C5.43506 17.081 4.64034 15.9418 4.17274 14.6675C4.05514 14.347 4.22921 13.9953 4.56154 13.8819C4.89386 13.7685 5.2586 13.9363 5.3762 14.2568C5.77187 15.335 6.44432 16.299 7.33082 17.0589C8.21732 17.8187 9.28898 18.3496 10.4458 18.602C11.6026 18.8544 12.8069 18.8201 13.9462 18.5023C15.0856 18.1845 16.1229 17.5935 16.9613 16.7846C16.966 16.78 16.9708 16.7756 16.9757 16.7712L20.9246 13.1929C21.1815 12.9601 21.5855 12.9722 21.8269 13.2199Z" fill="#121212"/>
</svg>
