<svg width="76" height="76" viewBox="0 0 76 76" fill="none" xmlns="http://www.w3.org/2000/svg">
<g filter="url(#filter0_dd_407_13543)">
<circle cx="38" cy="37" r="28" fill="#FF8922"/>
</g>
<path fill-rule="evenodd" clip-rule="evenodd" d="M38.8709 28.871C38.8709 28.3899 38.481 28 38 28C37.5189 28 37.129 28.3899 37.129 28.871V36.129H29.871C29.3899 36.129 29 36.5189 29 37C29 37.481 29.3899 37.8709 29.871 37.8709H37.129V45.129C37.129 45.6101 37.5189 46 38 46C38.481 46 38.8709 45.6101 38.8709 45.129V37.8709H46.129C46.6101 37.8709 47 37.481 47 37C47 36.5189 46.6101 36.129 46.129 36.129H38.8709V28.871Z" fill="white"/>
<defs>
<filter id="filter0_dd_407_13543" x="0" y="0" width="76" height="76" filterUnits="userSpaceOnUse" color-interpolation-filters="sRGB">
<feFlood flood-opacity="0" result="BackgroundImageFix"/>
<feColorMatrix in="SourceAlpha" type="matrix" values="0 0 0 0 0 0 0 0 0 0 0 0 0 0 0 0 0 0 127 0" result="hardAlpha"/>
<feOffset dy="2"/>
<feGaussianBlur stdDeviation="2"/>
<feColorMatrix type="matrix" values="0 0 0 0 0 0 0 0 0 0 0 0 0 0 0 0 0 0 0.1 0"/>
<feBlend mode="normal" in2="BackgroundImageFix" result="effect1_dropShadow_407_13543"/>
<feColorMatrix in="SourceAlpha" type="matrix" values="0 0 0 0 0 0 0 0 0 0 0 0 0 0 0 0 0 0 127 0" result="hardAlpha"/>
<feOffset dy="1"/>
<feGaussianBlur stdDeviation="5"/>
<feColorMatrix type="matrix" values="0 0 0 0 0 0 0 0 0 0 0 0 0 0 0 0 0 0 0.1 0"/>
<feBlend mode="normal" in2="effect1_dropShadow_407_13543" result="effect2_dropShadow_407_13543"/>
<feBlend mode="normal" in="SourceGraphic" in2="effect2_dropShadow_407_13543" result="shape"/>
</filter>
</defs>
</svg>
