<svg width="18" height="18" viewBox="0 0 18 18" fill="none" xmlns="http://www.w3.org/2000/svg">
<path fill-rule="evenodd" clip-rule="evenodd" d="M9.87094 0.870968C9.87094 0.389946 9.48099 0 8.99997 0C8.51895 0 8.129 0.389946 8.129 0.870968V8.129H0.870968C0.389946 8.129 0 8.51895 0 8.99997C0 9.48099 0.389946 9.87094 0.870968 9.87094H8.129V17.129C8.129 17.6101 8.51895 18 8.99997 18C9.48099 18 9.87094 17.6101 9.87094 17.129V9.87094H17.129C17.6101 9.87094 18 9.48099 18 8.99997C18 8.51895 17.6101 8.129 17.129 8.129H9.87094V0.870968Z" fill="#CDC3B9"/>
</svg>
