<svg width="24" height="25" viewBox="0 0 24 25" fill="none" xmlns="http://www.w3.org/2000/svg">
<path fill-rule="evenodd" clip-rule="evenodd" d="M1 12.6799C1 6.6048 5.92487 1.67993 12 1.67993C18.0751 1.67993 23 6.6048 23 12.6799C23 18.7551 18.0751 23.6799 12 23.6799C5.92487 23.6799 1 18.7551 1 12.6799ZM12 7.1859C12.5651 7.1859 13.0233 7.58314 13.0233 8.07316V13.0667C13.0233 13.5567 12.5651 13.9539 12 13.9539C11.4349 13.9539 10.9767 13.5567 10.9767 13.0667V8.07316C10.9767 7.58314 11.4349 7.1859 12 7.1859ZM12 18.1741C12.5651 18.1741 13.0233 17.7336 13.0233 17.1902C13.0233 16.6468 12.5651 16.2063 12 16.2063C11.4349 16.2063 10.9767 16.6468 10.9767 17.1902C10.9767 17.7336 11.4349 18.1741 12 18.1741Z" fill="#FF4D4D"/>
</svg>