<svg width="16" height="17" viewBox="0 0 16 17" fill="none" xmlns="http://www.w3.org/2000/svg">
<path fill-rule="evenodd" clip-rule="evenodd" d="M15.7396 1.89536C16.0868 1.54823 16.0868 0.985412 15.7396 0.638279C15.3925 0.291147 14.8297 0.291147 14.4826 0.638279L8 7.12085L1.51743 0.638279C1.1703 0.291147 0.607482 0.291147 0.26035 0.638279C-0.0867832 0.985412 -0.0867832 1.54823 0.26035 1.89536L6.74292 8.37793L0.26035 14.8605C-0.0867832 15.2076 -0.0867832 15.7704 0.26035 16.1176C0.607482 16.4647 1.1703 16.4647 1.51743 16.1176L8 9.63501L14.4826 16.1176C14.8297 16.4647 15.3925 16.4647 15.7396 16.1176C16.0868 15.7704 16.0868 15.2076 15.7396 14.8605L9.25708 8.37793L15.7396 1.89536Z" fill="#121212"/>
</svg>
