<svg width="24" height="24" viewBox="0 0 24 24" fill="none" xmlns="http://www.w3.org/2000/svg">
<path fill-rule="evenodd" clip-rule="evenodd" d="M12 22.1538C18.0751 22.1538 23 17.4184 23 11.5769C23 5.73545 18.0751 1 12 1C5.92487 1 1 5.73545 1 11.5769C1 17.4184 5.92487 22.1538 12 22.1538ZM17.9298 8.39422C18.221 8.09806 18.2073 7.63102 17.8993 7.35105C17.5913 7.07109 17.1056 7.08422 16.8144 7.38038L9.63376 14.6843L6.67402 11.6738C6.38286 11.3776 5.89713 11.3645 5.58912 11.6444C5.28111 11.9244 5.26746 12.3914 5.55862 12.6876L9.07606 16.2654C9.22103 16.4129 9.42274 16.4964 9.63376 16.4964C9.84479 16.4964 10.0465 16.4129 10.1915 16.2654L17.9298 8.39422Z" fill="#CDC3B9"/>
</svg>
